<?xml version="1.0" standalone="no"?>
<!DOCTYPE svg PUBLIC "-//W3C//DTD SVG 1.1//EN" "http://www.w3.org/Graphics/SVG/1.1/DTD/svg11.dtd" >
<svg xmlns="http://www.w3.org/2000/svg" xmlns:xlink="http://www.w3.org/1999/xlink" version="1.1">
<metadata>
Created by FontForge 20200427 at Tue Apr  2 18:54:40 2013
 By www
Copyright (c) 2012, 2013 Monotype Imaging Inc. All rights reserved.
</metadata>
<defs>
<font id="DidoteTextW01-Italic" horiz-adv-x="278" >
  <font-face 
    font-family="DidoteTextW01-Italic"
    font-weight="400"
    font-style="italic"
    font-stretch="normal"
    units-per-em="1000"
    panose-1="2 0 5 4 9 0 0 9 0 3"
    ascent="721"
    descent="-279"
    x-height="457"
    cap-height="712"
    bbox="-267 -295 1153 963"
    underline-thickness="32"
    underline-position="-123"
    unicode-range="U+0020-2122"
  />
<missing-glyph horiz-adv-x="500" 
d="M12 665h475v-665h-475v665zM250 375l161 243h-323zM60 91l7 10t18 27t25.5 39t29.5 45q35 54 81 121l-161 242v-484zM278 333l162 -243v485zM250 290l-162 -242h323z" />
    <glyph glyph-name=".notdef" horiz-adv-x="500" 
d="M12 665h475v-665h-475v665zM250 375l161 243h-323zM60 91l7 10t18 27t25.5 39t29.5 45q35 54 81 121l-161 242v-484zM278 333l162 -243v485zM250 290l-162 -242h323z" />
    <glyph glyph-name="glyph1" horiz-adv-x="0" 
 />
    <glyph glyph-name="glyph2" horiz-adv-x="241" 
 />
    <glyph glyph-name="space" unicode=" " horiz-adv-x="241" 
 />
    <glyph glyph-name="exclam" unicode="!" horiz-adv-x="315" 
d="M109 182l94 486q5 27 17 42t35 15q22 0 35 -13t13 -34q0 -15 -7 -33l-162 -469zM30 40q0 22 15.5 37.5t37.5 15.5t37.5 -15.5t15.5 -37.5t-15.5 -37.5t-37.5 -15.5t-37.5 15.5t-15.5 37.5z" />
    <glyph glyph-name="quotedbl" unicode="&#x22;" horiz-adv-x="420" 
d="M202 676q8 29 18.5 41.5t28.5 12.5q26 0 26 -24q0 -14 -13 -43l-91 -222h-34zM344 676q8 29 18.5 41.5t28.5 12.5q26 0 26 -24q0 -14 -13 -43l-91 -222h-34z" />
    <glyph glyph-name="numbersign" unicode="#" horiz-adv-x="556" 
d="M303 227h-149l-82 -227h-41l82 227h-122l14 38h122l65 178h-125l14 38h125l84 231h41l-84 -231h149l84 231h41l-84 -231h120l-14 -38h-120l-65 -178h124l-14 -38h-124l-82 -227h-41zM168 265h149l65 178h-149z" />
    <glyph glyph-name="dollar" unicode="$" horiz-adv-x="630" 
d="M204 -13q-24 3 -44 9.5t-35.5 13.5t-28 12t-22.5 5q-29 0 -44 -35l-30 8l53 198h32q-2 -14 -3 -22.5t-1 -19.5q0 -50 34 -89t98 -47l86 320l-32 27q-98 80 -98 172q0 42 16 76t45.5 58.5t71 38t93.5 13.5h8l15 56h32l-16 -59q20 -3 35 -8t27 -10.5t23 -9t23 -3.5
q26 0 37 29l30 -8l-48 -182h-34q2 8 3.5 21.5t1.5 24.5q0 51 -29.5 79.5t-77.5 35.5l-75 -280l48 -38q34 -28 55.5 -49.5t33.5 -41.5t16.5 -40t4.5 -45q0 -57 -30.5 -102t-81.5 -74q-34 -20 -73.5 -27t-87.5 -8l-19 -73h-32zM325 319l-81 -301q40 0 74 10t59.5 28.5t40 45.5
t14.5 61t-13.5 63t-54.5 62zM239 568q0 -33 15.5 -62.5t49.5 -56.5l20 -17l70 261q-33 0 -61 -7.5t-49 -23t-33 -39t-12 -55.5z" />
    <glyph glyph-name="percent" unicode="%" horiz-adv-x="792" 
d="M249 704q57 0 89.5 -34.5t32.5 -86.5q0 -41 -15 -79.5t-41 -68.5t-61 -48.5t-75 -18.5q-52 0 -85.5 31.5t-33.5 91.5q0 31 13 68.5t37.5 69.5t59.5 53.5t79 21.5zM246 672q-33 0 -57 -19.5t-39.5 -49.5t-22.5 -66.5t-7 -69.5q0 -32 16.5 -49.5t46.5 -17.5q31 0 54.5 20
t40 50.5t25 67.5t8.5 70q0 29 -15.5 46.5t-49.5 17.5zM601 723l32 -18l-433 -723l-32 18zM610 322q57 0 89.5 -34.5t32.5 -86.5q0 -41 -15 -79.5t-41 -68.5t-61 -48.5t-75 -18.5q-52 0 -85.5 31.5t-33.5 91.5q0 31 13 68.5t37.5 69.5t59.5 53.5t79 21.5zM607 290
q-33 0 -57 -19.5t-39.5 -49.5t-22.5 -66.5t-7 -69.5q0 -32 16.5 -49.5t46.5 -17.5q31 0 54.5 20t40 50.5t25 67.5t8.5 70q0 29 -15.5 46.5t-49.5 17.5z" />
    <glyph glyph-name="ampersand" unicode="&#x26;" horiz-adv-x="874" 
d="M765 210q-51 -224 -185 -224q-49 0 -90 27t-73 73q-36 -57 -74.5 -78.5t-88.5 -21.5q-37 0 -72.5 14t-63.5 40.5t-45 64.5t-17 85q0 224 284 310q17 106 63 165.5t110 59.5q43 0 66.5 -23t23.5 -58q0 -43 -45.5 -83t-136.5 -72q2 -72 11.5 -148t26.5 -142h2
q32 70 57.5 116t49.5 74t48.5 39.5t53.5 11.5q45 0 71 -25t26 -63q0 -23 -13 -36t-35 -13q-21 0 -28.5 8t-7.5 25q0 14 4 23t4 25q0 24 -30 24q-21 0 -41.5 -12.5t-43 -41.5t-48 -77t-57.5 -119q23 -77 50 -108.5t68 -31.5q51 0 88 52.5t57 146.5zM271 18q36 0 68 22t62 71
q-34 57 -52 128.5t-18 144.5q0 22 1 42t3 40q-71 -23 -120 -57q-35 -23 -49 -54t-14 -80q0 -121 31 -189t88 -68zM521 693q-52 0 -75.5 -39.5t-24.5 -132.5q81 29 115.5 61.5t34.5 62.5q0 22 -13.5 35t-36.5 13z" />
    <glyph glyph-name="quotesingle" unicode="'" 
d="M202 676q8 29 18.5 41.5t28.5 12.5q26 0 26 -24q0 -14 -13 -43l-91 -222h-34z" />
    <glyph glyph-name="parenleft" unicode="(" horiz-adv-x="294" 
d="M107 -295q-30 82 -44.5 158.5t-14.5 157.5q0 105 22.5 205t65.5 190t106 169t144 143l24 -20q-79 -64 -140 -141.5t-102 -165t-62.5 -183.5t-21.5 -197q0 -78 13.5 -151.5t42.5 -148.5z" />
    <glyph glyph-name="parenright" unicode=")" horiz-adv-x="294" 
d="M139 728q30 -82 44.5 -158.5t14.5 -157.5q0 -105 -22.5 -205t-65.5 -190t-106 -169t-144 -143l-24 20q79 64 140 141.5t102 165t62.5 183.5t21.5 197q0 78 -13.5 151.5t-42.5 148.5z" />
    <glyph glyph-name="asterisk" unicode="*" horiz-adv-x="444" 
d="M269 534q40 16 68.5 32t47.5 33q16 14 32 14q17 0 29.5 -12.5t12.5 -29.5t-12 -29t-29 -12q-10 0 -23 3t-39 3h-19t-17 -1t-20.5 -2.5t-29.5 -4.5q36 -29 64.5 -46t55.5 -25q28 -8 28 -39q0 -17 -12.5 -29.5t-29.5 -12.5q-30 0 -43 40q-8 22 -25 49.5t-42 58.5
q-5 -31 -6.5 -47.5t-1.5 -36.5q0 -15 1 -25t2.5 -17t2.5 -12t1 -10q0 -17 -12.5 -29t-29.5 -12t-29 12.5t-12 29.5q0 10 3.5 16.5t15.5 20.5q30 36 59 112q-43 -17 -72 -33.5t-49 -34.5q-11 -11 -27 -11q-17 0 -29.5 12.5t-12.5 29.5t11.5 29t28.5 12q6 0 11 -1t12 -2
t16.5 -2t23.5 -1h18.5t17.5 1t20.5 2.5t28.5 4.5q-31 25 -58.5 42t-48.5 25q-23 8 -31.5 17t-8.5 26t12 29.5t29 12.5q18 0 27 -8.5t17 -32.5q17 -46 67 -107q5 31 6 48t1 37q0 26 -3 38.5t-3 23.5q0 17 12 29.5t30 12.5q17 0 29 -12.5t12 -29.5q0 -10 -3.5 -17t-15.5 -21
q-31 -36 -59 -111z" />
    <glyph glyph-name="plus" unicode="+" horiz-adv-x="593" 
d="M280 224h-223v32h223v223h34v-223h222v-32h-222v-224h-34v224z" />
    <glyph glyph-name="comma" unicode="," horiz-adv-x="292" 
d="M-32 -143q23 7 43.5 18.5t36 26.5t24.5 32.5t9 36.5q0 14 -4 23q-10 -7 -24 -7q-23 0 -38.5 15.5t-15.5 38.5q0 22 17 37t43 15q31 0 50.5 -25t19.5 -60q0 -66 -39.5 -109t-112.5 -71z" />
    <glyph glyph-name="hyphen" unicode="-" horiz-adv-x="420" 
d="M73 264h224l-16 -60h-224z" />
    <glyph glyph-name="period" unicode="." horiz-adv-x="295" 
d="M6 44q0 23 16 39.5t39 16.5t39.5 -16.5t16.5 -39.5t-16.5 -39t-39.5 -16t-39 16t-16 39z" />
    <glyph glyph-name="slash" unicode="/" horiz-adv-x="312" 
d="M-77 -5l432 739l34 -19l-432 -739z" />
    <glyph glyph-name="zero" unicode="0" horiz-adv-x="507" 
d="M336 704q34 0 61.5 -15.5t46.5 -43.5t29 -66.5t10 -84.5q0 -99 -29.5 -190.5t-75.5 -162t-100.5 -113t-104.5 -42.5q-69 0 -108.5 56.5t-39.5 156.5q0 60 13 121t35 117t52 105t64.5 85t72 56.5t74.5 20.5zM331 672q-34 0 -64.5 -31.5t-56.5 -81t-47 -110.5t-35.5 -120.5
t-22.5 -111t-8 -81.5q0 -57 22 -87.5t59 -30.5q32 0 62 31t56 80t47 109.5t36 119.5t23.5 110.5t8.5 81.5q0 60 -22 91t-58 31z" />
    <glyph glyph-name="one" unicode="1" horiz-adv-x="507" 
d="M150 32l159 572q-31 -20 -71.5 -42t-85.5 -42l-15 27q162 73 251 157h26l-188 -672h107l-9 -32h-279l9 32h96z" />
    <glyph glyph-name="two" unicode="2" horiz-adv-x="507" 
d="M-72 21q28 25 66.5 62.5t78.5 77.5t77.5 78.5t63.5 65.5q46 48 76.5 86t49 69t26 57.5t7.5 52.5q0 43 -25.5 72.5t-79.5 29.5q-24 0 -44 -7t-34 -18t-22 -25.5t-8 -29.5q0 -11 3 -19.5t3 -20.5q0 -17 -11 -28.5t-31 -11.5t-32 13.5t-12 33.5q0 26 17 52t44.5 46.5
t63.5 33.5t75 13t71.5 -12.5t56.5 -33.5t37.5 -49.5t13.5 -60.5q0 -52 -31.5 -103t-105.5 -115l-299 -258h241q38 0 56.5 10t26.5 37l9 29h33l-39 -148h-413z" />
    <glyph glyph-name="three" unicode="3" horiz-adv-x="507" 
d="M122 369q52 11 86.5 23.5t62.5 28.5q45 26 69.5 69t24.5 98q0 40 -19 62t-57 22q-79 0 -79 -66q0 -32 -12 -45.5t-38 -13.5q-15 0 -23.5 10.5t-8.5 28.5q0 23 13 44.5t35 38t52 26t63 9.5q34 0 63.5 -10t51 -27.5t33.5 -41t12 -49.5q0 -61 -59.5 -113.5t-162.5 -88.5
l1 -3q81 0 122.5 -35t41.5 -98q0 -47 -28 -93.5t-72.5 -84t-99.5 -61t-110 -23.5q-57 0 -88 20t-31 50q0 31 36 31q15 0 23.5 -6t22.5 -26t28 -28.5t42 -8.5q36 0 70 20.5t61 54t43.5 76t16.5 86.5q0 45 -27 73.5t-75 28.5q-39 0 -75 -13z" />
    <glyph glyph-name="four" unicode="4" horiz-adv-x="507" 
d="M464 632q-74 -55 -136 -107.5t-115.5 -105.5t-99.5 -107.5t-87 -113.5h240l68 251h82l-68 -251h106l-9 -33h-106l-35 -133h80l-9 -32h-241l9 32h79l35 133h-288q75 114 179.5 236.5t234.5 261.5q13 14 22 22t17.5 12.5t17.5 5.5t23 1q43 0 43 -22q0 -5 -1 -9t-5 -9.5
t-12.5 -13t-23.5 -18.5z" />
    <glyph glyph-name="five" unicode="5" horiz-adv-x="507" 
d="M208 695q32 -2 75.5 -3.5t88.5 -1.5q32 0 52 7.5t40 34.5l21 -15q-19 -33 -35.5 -53.5t-32.5 -31.5t-33 -14.5t-37 -3.5q-37 0 -65.5 1.5t-60.5 3.5l-49 -172q109 -6 166.5 -50t57.5 -125q0 -54 -27 -108t-71.5 -97t-101.5 -70t-117 -27q-50 0 -84.5 16t-34.5 46
q0 16 10 28t27 12q20 0 29.5 -9t21.5 -29q11 -17 24 -21.5t38 -4.5q40 0 76.5 19.5t64.5 52.5t44.5 75.5t16.5 88.5q0 71 -46.5 99t-146.5 28z" />
    <glyph glyph-name="six" unicode="6" horiz-adv-x="507" 
d="M174 401q26 20 50.5 29t52.5 9q32 0 59.5 -14.5t48 -39t32 -57t11.5 -67.5q0 -47 -19.5 -95.5t-53.5 -88.5t-79.5 -65.5t-97.5 -25.5q-73 0 -114 47t-41 131q0 58 16.5 121t44 123t65 113.5t79.5 94.5t86.5 64.5t86.5 23.5q24 0 44 -7.5t34.5 -20t23 -29t8.5 -34.5
q0 -23 -12 -36.5t-32 -13.5t-32 9.5t-12 24.5q0 10 2 18t2 20q0 31 -42 31q-23 0 -46.5 -8.5t-47 -30.5t-47 -59.5t-45.5 -95.5l-27 -69zM155 356q-14 -36 -24.5 -72.5t-18 -70t-11.5 -62t-4 -49.5q0 -42 22 -63t61 -21q38 0 67 22t55 81q10 22 19 48.5t16 53t11 51.5t4 44
q0 42 -23 65.5t-65 23.5q-27 0 -53.5 -13t-55.5 -38z" />
    <glyph glyph-name="seven" unicode="7" horiz-adv-x="507" 
d="M503 690q-7 -41 -23.5 -79.5t-42.5 -90.5q-31 -62 -62 -126t-60.5 -125.5t-56 -117.5t-47.5 -102q-9 -20 -17 -32.5t-16.5 -19.5t-19.5 -9t-26 -2q-44 0 -44 26q0 9 5.5 20t21.5 37l229 362q42 66 66.5 110t37.5 73h-240q-16 0 -28 -3.5t-21 -12t-16.5 -23.5t-13.5 -38
h-32l40 153h366z" />
    <glyph glyph-name="eight" unicode="8" horiz-adv-x="507" 
d="M479 566q0 -50 -36.5 -92t-123.5 -88l32 -25q47 -38 63.5 -74t16.5 -70q0 -45 -19.5 -87t-52.5 -74t-76 -51t-89 -19q-39 0 -72.5 14t-59 37.5t-40 55.5t-14.5 68q0 58 45.5 111t150.5 102q-42 37 -60.5 68.5t-18.5 73.5q0 36 13 70t37.5 60t60 42t79.5 16q34 0 64 -10
t52.5 -28.5t35 -44t12.5 -55.5zM225 357q-43 -20 -71.5 -45.5t-46 -53t-24.5 -56t-7 -55.5q0 -26 8 -49.5t23.5 -41t38.5 -28t52 -10.5q36 0 66.5 12.5t52 34.5t34 51.5t12.5 64.5q0 33 -16 61t-55 60zM187 555q0 -35 15 -60.5t52 -55.5l42 -34q60 30 87.5 75t27.5 102
q0 43 -25 66.5t-74 23.5q-57 0 -91 -32.5t-34 -84.5z" />
    <glyph glyph-name="nine" unicode="9" horiz-adv-x="507" 
d="M335 289q-47 -38 -102 -38q-35 0 -63 14.5t-48.5 38.5t-31.5 56.5t-11 68.5q0 47 20 96t54 88.5t79.5 65t96.5 25.5q73 0 114 -48t41 -129q0 -59 -15 -122t-41 -123.5t-61.5 -114t-76 -94t-85.5 -64t-89 -23.5q-54 0 -85 24t-31 64q0 24 11.5 38.5t34.5 14.5
q19 0 30.5 -11t11.5 -28q0 -8 -2 -14.5t-2 -18.5q0 -16 10.5 -23.5t37.5 -7.5t51 8t46.5 30t44 61.5t42.5 102.5l21 61zM372 390q40 117 40 193q0 46 -22 67.5t-64 21.5q-30 0 -54.5 -14.5t-43.5 -37.5t-33 -53t-22.5 -61.5t-13 -61.5t-4.5 -54q0 -107 89 -107q26 0 52.5 12
t57.5 41z" />
    <glyph glyph-name="colon" unicode=":" horiz-adv-x="330" 
d="M33 44q0 23 16 39.5t39 16.5t39.5 -16.5t16.5 -39.5t-16.5 -39t-39.5 -16t-39 16t-16 39zM131 414q0 23 16 39.5t39 16.5t39.5 -16.5t16.5 -39.5t-16.5 -39t-39.5 -16t-39 16t-16 39z" />
    <glyph glyph-name="semicolon" unicode=";" horiz-adv-x="330" 
d="M3 -143q23 7 43.5 18.5t36 26.5t24.5 32.5t9 36.5q0 14 -4 23q-10 -7 -24 -7q-23 0 -38.5 15.5t-15.5 38.5q0 22 17 37t43 15q31 0 50.5 -25t19.5 -60q0 -66 -39.5 -109t-112.5 -71zM131 414q0 23 16 39.5t39 16.5t39.5 -16.5t16.5 -39.5t-16.5 -39t-39.5 -16t-39 16
t-16 39z" />
    <glyph glyph-name="less" unicode="&#x3c;" horiz-adv-x="593" 
d="M12 236v8l568 236v-36l-500 -204l500 -204v-36z" />
    <glyph glyph-name="equal" unicode="=" horiz-adv-x="593" 
d="M57 316v32h479v-32h-479zM57 132v32h479v-32h-479z" />
    <glyph glyph-name="greater" unicode="&#x3e;" horiz-adv-x="593" 
d="M580 244v-8l-568 -236v36l500 204l-500 204v36z" />
    <glyph glyph-name="question" unicode="?" horiz-adv-x="417" 
d="M126 186l17 66q7 26 19 45t33 42l74 80q34 38 58.5 90t24.5 103q0 38 -22.5 59.5t-64.5 21.5q-45 0 -65 -21t-20 -66q0 -46 -44 -46q-18 0 -29 12t-11 31q0 22 12.5 44t35 39t53 28t66.5 11q78 0 123.5 -38.5t45.5 -102.5q0 -52 -25 -92t-63 -71l-95 -75q-36 -29 -52 -52
t-23 -49l-18 -68zM50 40q0 22 15.5 37.5t37.5 15.5t37.5 -15.5t15.5 -37.5t-15.5 -37.5t-37.5 -15.5t-37.5 15.5t-15.5 37.5z" />
    <glyph glyph-name="at" unicode="@" horiz-adv-x="841" 
d="M652 458l-93 -258q-10 -27 -13.5 -44t-3.5 -32q0 -32 36 -32q34 0 67.5 19t60 53t42.5 80.5t16 102.5q0 53 -21.5 101.5t-61.5 85t-97 58.5t-127 22q-76 0 -141.5 -30t-114 -80t-76.5 -116t-28 -138q0 -78 26.5 -140t73 -105.5t109.5 -67t135 -23.5q67 0 131 19.5
t132 72.5l18 -27q-69 -55 -144.5 -76t-147.5 -21q-81 0 -151.5 26t-122.5 73.5t-81.5 114.5t-29.5 149t33 155t89.5 127.5t132.5 86.5t163 32q70 0 131 -22.5t106 -62t70.5 -94.5t25.5 -120t-19.5 -118t-53 -91t-78 -59t-93.5 -21q-48 0 -69.5 17.5t-21.5 43.5q0 8 2 16
t4 14h-2q-42 -51 -80 -71t-74 -20q-48 0 -77.5 32.5t-29.5 86.5t31.5 106t76.5 93.5t95 67t87 25.5q26 0 43.5 -14t20.5 -39h2l14 42h78zM536 349q5 17 5 30q0 23 -13 40.5t-38 17.5q-42 0 -79.5 -31t-66 -75t-45 -91.5t-16.5 -80.5t10.5 -51t36.5 -18q22 0 46.5 13
t47.5 34.5t42 48.5t30 55z" />
    <glyph glyph-name="A" unicode="A" horiz-adv-x="733" 
d="M-5 32l489 696h49l17 -696h114l-9 -32h-314l9 32h103l-4 248h-240l-175 -248h94l-9 -32h-207l9 32h74zM231 312h218l-5 300h-2z" />
    <glyph glyph-name="B" unicode="B" horiz-adv-x="662" 
d="M257 680h-115l10 32h222q118 0 183.5 -39.5t65.5 -114.5q0 -36 -17 -66t-48.5 -52.5t-76.5 -37t-100 -18.5l-1 -4q78 -18 123.5 -62t45.5 -107q0 -47 -26.5 -85.5t-73.5 -66.5t-111.5 -43.5t-140.5 -15.5h-286l11 32h101zM121 32h85q62 -1 108 19t76.5 51.5t45.5 71
t15 77.5q0 54 -37 86t-100 32h-73zM346 401q39 0 71.5 13t55.5 36.5t35.5 57t12.5 74.5q0 48 -34 73t-94 25h-39l-101 -279h93z" />
    <glyph glyph-name="C" unicode="C" horiz-adv-x="671" 
d="M655 519h-31q6 31 6 57q0 30 -12 52t-32.5 36.5t-48.5 21.5t-61 7q-38 0 -74 -16t-68 -44t-59.5 -66t-48.5 -81q-20 -43 -35.5 -87t-26 -85t-16 -77.5t-5.5 -65.5q0 -75 42 -114t126 -39q70 0 124 34.5t96 106.5l28 -14q-46 -81 -110.5 -120t-145.5 -39q-59 0 -104.5 20
t-77 57.5t-48 89.5t-16.5 117q0 90 43 179.5t125 162.5q57 49 123.5 81t130.5 32q34 0 59 -6t44 -13.5t35 -13.5t32 -6q27 0 42 29l32 -6z" />
    <glyph glyph-name="D" unicode="D" horiz-adv-x="808" 
d="M264 680h-115l10 32h308q67 0 119 -20t87.5 -56t54 -86.5t18.5 -111.5q0 -57 -19 -114t-53 -108.5t-82 -94.5t-106 -72q-55 -26 -109.5 -37.5t-124.5 -11.5h-335l10 32h104zM128 32h134q78 0 151 37.5t136 118.5q24 30 43 68.5t33 79.5t21.5 81.5t7.5 74.5q0 45 -10.5 80
t-34 59t-61.5 36.5t-93 12.5h-95z" />
    <glyph glyph-name="E" unicode="E" horiz-adv-x="710" 
d="M25 32l233 648h-114l10 32h579l-67 -188h-32q3 12 6.5 36t3.5 45q0 35 -16 55t-64 20h-208l-103 -282h95q24 0 45 10.5t38.5 28t31.5 40.5t25 48h32l-110 -310h-32q3 11 7.5 31t4.5 43q0 40 -22.5 58.5t-71.5 18.5h-54l-121 -334h232q55 0 106 43t103 139h32l-77 -214
h-606l10 32h104z" />
    <glyph glyph-name="F" unicode="F" horiz-adv-x="691" 
d="M261 680h-114l10 32h589l-67 -188h-32q3 12 6.5 36t3.5 45q0 35 -16 55t-64 20h-218l-109 -298h142q24 0 45 10.5t38.5 28t31.5 40.5t25 48h32l-110 -310h-32q3 11 7.5 31t4.5 43q0 40 -22.5 58.5t-71.5 18.5h-101l-115 -318h117l-10 -32h-315l10 32h102z" />
    <glyph glyph-name="G" unicode="G" horiz-adv-x="744" 
d="M304 -14q-59 0 -104.5 20t-77 57.5t-48 89.5t-16.5 117q0 90 43 179.5t125 162.5q57 49 123.5 81t130.5 32q34 0 59 -6t44 -13.5t35 -13.5t32 -6q27 0 42 29l32 -6l-68 -190h-31q6 31 6 57q0 30 -12 52t-32.5 36.5t-48.5 21.5t-61 7q-38 0 -74 -16t-68 -44t-59.5 -66
t-48.5 -81q-20 -43 -35.5 -87t-26 -85t-16 -77.5t-5.5 -65.5q0 -75 42 -114t126 -39q63 0 103.5 31.5t60.5 86.5l32 89h-114l9 32h291l-9 -32h-80l-81 -225h-32q-1 25 -26 25q-12 0 -25.5 -6t-32 -13.5t-43.5 -13.5t-61 -6z" />
    <glyph glyph-name="H" unicode="H" horiz-adv-x="808" 
d="M-75 32h103l232 648h-113l10 32h315l-10 -32h-104l-108 -300h322l109 300h-115l10 32h314l-10 -32h-103l-234 -648h115l-10 -32h-316l10 32h104l115 316h-322l-115 -316h115l-10 -32h-314z" />
    <glyph glyph-name="I" unicode="I" horiz-adv-x="395" 
d="M-73 32h103l233 648h-114l10 32h316l-10 -32h-106l-232 -648h114l-10 -32h-314z" />
    <glyph glyph-name="J" unicode="J" horiz-adv-x="471" 
d="M236 680l10 32h313l-10 -32h-103l-157 -436q-20 -55 -40 -93t-49 -73q-42 -51 -81 -71.5t-79 -20.5q-51 0 -77.5 28.5t-26.5 73.5q0 32 18 53.5t49 21.5q20 0 32 -11.5t12 -28.5q0 -14 -4 -23t-9.5 -16.5t-9.5 -16t-4 -21.5t6.5 -20.5t23.5 -7.5q16 0 29.5 6t28 25t31 55
t37.5 95l173 481h-113z" />
    <glyph glyph-name="K" unicode="K" horiz-adv-x="718" 
d="M693 680l-361 -280l191 -368h110l-9 -32h-310l9 32h94l-163 325h-14l-116 -325h113l-10 -32h-313l10 32h103l233 648h-114l10 32h313l-10 -32h-103l-104 -291h15l374 289v2h-93l9 32h215l-9 -32h-70z" />
    <glyph glyph-name="L" unicode="L" horiz-adv-x="660" 
d="M-88 0l10 32h103l233 648h-114l10 32h316l-10 -32h-105l-233 -648h231q55 0 106 43t103 139h32l-76 -214h-606z" />
    <glyph glyph-name="M" unicode="M" horiz-adv-x="895" 
d="M369 154l385 558h229l-9 -32h-104l-233 -648h113l-10 -32h-315l9 32h105l234 648h-2l-486 -695h-13l14 695h-3l-230 -648h113l-10 -32h-252l10 32h105l232 648h-114l9 32h233l-12 -558h2z" />
    <glyph glyph-name="N" unicode="N" horiz-adv-x="736" 
d="M501 168l183 512h-114l9 32h252l-9 -32h-104l-252 -695h-13l-172 677h-2l-225 -630h113l-9 -32h-252l9 32h104l231 648h-112l9 32h215l137 -544h2z" />
    <glyph glyph-name="O" unicode="O" horiz-adv-x="790" 
d="M495 725q57 0 101.5 -22t75 -61t46 -92t15.5 -115q0 -56 -17 -111t-47.5 -104.5t-72 -92.5t-90 -74t-102.5 -49t-109 -18q-54 0 -97 19.5t-74 56.5t-47.5 90t-16.5 121q0 56 18 111.5t49 106t73 93.5t90.5 74t100.5 49t104 18zM491 693q-72 0 -137 -44t-110 -128
q-23 -42 -41.5 -89t-31.5 -93.5t-20 -91t-7 -80.5q0 -149 154 -149q76 0 142 45.5t114 136.5q21 39 38 84t28.5 90t18 87.5t6.5 77.5q0 154 -154 154z" />
    <glyph glyph-name="P" unicode="P" horiz-adv-x="642" 
d="M309 290q-23 0 -49 2.5t-42 5.5l-95 -266h114l-11 -32h-314l9 32h106l232 648h-114l9 32h252q46 0 89.5 -12t77 -35.5t53.5 -57.5t20 -78q0 -54 -28 -98t-75 -75.5t-107.5 -48.5t-126.5 -17zM229 329q17 -3 38 -5t41 -2q51 0 94.5 19.5t75.5 51.5t50 74.5t18 89.5
q0 60 -40 91.5t-112 31.5h-39z" />
    <glyph glyph-name="Q" unicode="Q" horiz-adv-x="790" 
d="M617 -201h-34q-103 0 -165 25.5t-99 70.5l-33 39q-12 14 -21 24t-19 17.5t-21.5 14.5t-29.5 16q-66 32 -100.5 98.5t-34.5 168.5q0 56 18 111.5t49 106t73 93.5t90.5 74t100.5 49t104 18q57 0 101.5 -22t75 -61t46 -92t15.5 -115q0 -56 -17 -111t-47.5 -104.5t-72 -92.5
t-90 -74t-102.5 -49t-109 -18h-12.5t-12.5 1v-1q18 -17 39.5 -28t49.5 -15q32 -5 52.5 -9.5t36 -12.5t29.5 -21t33 -34q19 -22 38 -28.5t47 -6.5h22v-32zM491 693q-72 0 -137 -44t-110 -128q-23 -42 -41.5 -89t-31.5 -93.5t-20 -91t-7 -80.5q0 -149 154 -149q76 0 142 45.5
t114 136.5q21 39 38 84t28.5 90t18 87.5t6.5 77.5q0 154 -154 154z" />
    <glyph glyph-name="R" unicode="R" horiz-adv-x="660" 
d="M242 366l-119 -334h115l-12 -32h-314l12 32h103l231 648h-115l12 32h249q48 0 87.5 -11t68.5 -30.5t45 -48t16 -62.5q0 -72 -61 -117t-184 -59l-1 -4q147 -20 147 -124q0 -22 -3.5 -42.5t-7.5 -41.5t-7.5 -42t-3.5 -43q0 -26 14.5 -43.5t38.5 -17.5q15 0 29 6l8 -30
q-14 -5 -28.5 -6.5t-33.5 -1.5q-61 0 -93 27t-32 81q0 18 3.5 41.5t7.5 48t7.5 48.5t3.5 44q0 42 -32 62t-105 20h-46zM253 398h60q90 0 134 30q74 51 74 154q0 48 -34 73t-92 25h-41z" />
    <glyph glyph-name="S" unicode="S" horiz-adv-x="617" 
d="M540 521h-30q5 13 7 29t2 31q0 54 -35 83t-104 29q-32 0 -59 -8.5t-47 -23.5t-31 -36t-11 -46q0 -27 13 -57.5t48 -62.5l100 -90q45 -42 65 -78.5t20 -84.5q0 -44 -20 -84t-57 -70t-88 -48t-112 -18q-33 0 -59 6.5t-47 14t-39 14t-35 6.5q-14 0 -25 -9.5t-13 -22.5l-32 7
l69 195h33q-7 -19 -9.5 -30.5t-2.5 -24.5q0 -28 13 -50.5t35.5 -39t53 -25.5t66.5 -9q40 0 73 10.5t56 30t35.5 46t12.5 59.5q0 35 -12 64t-44 58l-89 82q-44 41 -63.5 79.5t-19.5 86.5q0 41 18.5 76t49.5 60.5t72.5 40t87.5 14.5q28 0 50 -5.5t40 -12.5t33.5 -12.5
t29.5 -5.5q26 0 37 26l33 -5z" />
    <glyph glyph-name="T" unicode="T" horiz-adv-x="709" 
d="M405 680h-98q-41 0 -75 -23t-60 -53.5t-43.5 -61t-26.5 -45.5h-32l76 215h645l-76 -215h-32q5 20 7 44t2 48q0 38 -20.5 64.5t-71.5 26.5h-99l-233 -648h114l-10 -32h-315l10 32h105z" />
    <glyph glyph-name="U" unicode="U" horiz-adv-x="767" 
d="M137 680l10 32h315l-10 -32h-105l-143 -397q-8 -23 -13.5 -41.5t-9 -34.5t-5 -31t-1.5 -31q0 -58 37 -92.5t97 -34.5q96 0 161.5 58.5t103.5 182.5l130 421h-114l10 32h254l-10 -32h-104l-139 -446q-43 -129 -118 -188.5t-190 -59.5q-50 0 -89 13t-65.5 35.5t-40.5 54
t-14 68.5q0 16 1.5 32.5t6 37t12.5 45t20 56.5l127 352h-114z" />
    <glyph glyph-name="V" unicode="V" horiz-adv-x="723" 
d="M277 680v-575h2l400 575h-91l9 32h215l-9 -32h-83l-485 -695h-52l-4 695h-109l9 32h310l-9 -32h-103z" />
    <glyph glyph-name="W" unicode="W" horiz-adv-x="1070" 
d="M638 116l377 564h-96l9 32h225l-9 -32h-89l-467 -695h-44l4 466h-3l-313 -466h-50l8 695h-110l9 32h300l-9 -32h-97l-6 -571h2l269 404l2 167h-105l9 32h309l-9 -32h-112l-6 -564h2z" />
    <glyph glyph-name="X" unicode="X" horiz-adv-x="711" 
d="M402 32l-79 297l-261 -297h77l-8 -32h-205l8 32h87l290 331l-83 317h-117l9 32h312l-9 -32h-96l66 -254l220 254h-72l9 32h205l-9 -32h-92l-249 -287l94 -361h115l-8 -32h-311l8 32h99z" />
    <glyph glyph-name="Y" unicode="Y" horiz-adv-x="664" 
d="M361 302l-99 -270h115l-10 -32h-315l10 32h112l100 275l-71 373h-110l9 32h314l-9 -32h-111l63 -334l297 334h-88l9 32h206l-9 -32h-78z" />
    <glyph glyph-name="Z" unicode="Z" horiz-adv-x="657" 
d="M537 680h-202q-108 0 -205 -181h-32l75 213h506l-588 -680h262q30 0 57.5 13.5t53 38t49 58t45.5 72.5h32l-78 -214h-563z" />
    <glyph glyph-name="bracketleft" unicode="[" horiz-adv-x="294" 
d="M216 712h140l-10 -36h-102l-247 -920h104l-10 -36h-140z" />
    <glyph glyph-name="backslash" unicode="\" horiz-adv-x="312" 
d="M161 -23l-46 739l36 18l46 -739z" />
    <glyph glyph-name="bracketright" unicode="]" horiz-adv-x="294" 
d="M1 -280h-140l10 36h102l247 920h-104l10 36h140z" />
    <glyph glyph-name="asciicircum" unicode="^" horiz-adv-x="614" 
d="M297 721h21l176 -416h-33l-154 365l-153 -365h-34z" />
    <glyph glyph-name="underscore" unicode="_" horiz-adv-x="500" 
d="M0 -107v42h500v-42h-500z" />
    <glyph glyph-name="grave" unicode="`" 
d="M101 656q-10 8 -16 16.5t-6 17.5q0 14 8.5 23t25.5 9q10 0 17.5 -4.5t16.5 -16.5l110 -149h-31z" />
    <glyph glyph-name="a" unicode="a" horiz-adv-x="595" 
d="M528 457l-109 -303q-12 -33 -18.5 -58.5t-6.5 -42.5q0 -12 7.5 -19t19.5 -7q24 0 47.5 19t43.5 58l28 -14q-55 -103 -147 -103q-37 0 -57.5 15t-20.5 45q0 9 2 23.5t5 23.5h-2q-52 -60 -97.5 -83.5t-90.5 -23.5q-57 0 -89.5 38.5t-32.5 101.5q0 42 17 83.5t45 80t64 71
t73 57t73 38t65 13.5q32 0 55 -16.5t27 -45.5h2l17 49h80zM403 329q5 14 7 24.5t2 19.5q0 29 -19 47t-51 18q-34 0 -65.5 -17.5t-59.5 -45.5t-51 -64t-40 -73t-26 -72t-9 -61q0 -42 15 -64t48 -22q23 0 52 13.5t57 36t51.5 52.5t35.5 64z" />
    <glyph glyph-name="b" unicode="b" horiz-adv-x="582" 
d="M195 366l2 -1q37 52 80.5 78.5t88.5 26.5q31 0 56.5 -11.5t43.5 -31.5t28 -47.5t10 -59.5q0 -40 -15.5 -80t-42 -77t-60.5 -69t-71 -56t-74.5 -37.5t-70.5 -13.5q-60 0 -98 33t-38 84q0 19 5.5 42.5t17.5 56.5l173 486h-88l10 32h170zM355 438q-45 0 -91.5 -39
t-89.5 -108q-16 -25 -29 -53t-22 -55t-14 -52.5t-5 -44.5q0 -67 70 -67q31 0 62 17t59.5 44.5t53 63.5t43 74.5t29 75.5t10.5 68q0 36 -20.5 56t-55.5 20z" />
    <glyph glyph-name="c" unicode="c" horiz-adv-x="478" 
d="M387 101q-81 -114 -199 -114q-38 0 -68.5 12.5t-52 34t-33.5 52t-12 66.5q0 51 25.5 107.5t68 103t97.5 77t115 30.5t89 -27t29 -72q0 -38 -17 -54t-46 -16q-14 0 -22 9t-8 23q0 12 4 19t9.5 13t9.5 13.5t4 19.5q0 19 -12.5 29.5t-46.5 10.5q-48 0 -88 -32.5t-69 -81
t-45 -105t-16 -103.5q0 -45 26.5 -71t74.5 -26q40 0 81.5 24.5t73.5 72.5z" />
    <glyph glyph-name="d" unicode="d" horiz-adv-x="597" 
d="M400 323q5 12 7.5 24t2.5 20q0 32 -18 51.5t-50 19.5q-34 0 -65.5 -17t-59.5 -45t-51 -63.5t-40 -72.5t-26 -72t-9 -61q0 -86 63 -86q22 0 51.5 14t58 37t52.5 52.5t35 60.5zM444 689l9 32h169l-209 -584q-19 -54 -19 -84q0 -26 25 -26t48.5 17.5t43.5 59.5l29 -14
q-53 -103 -149 -103q-36 0 -56 15t-20 45q0 9 2 23.5t5 23.5h-2q-52 -60 -97.5 -83.5t-90.5 -23.5q-57 0 -89.5 37.5t-32.5 100.5q0 42 16.5 84t43.5 80.5t61.5 71.5t71.5 57t72 38t64 14q35 0 60 -15.5t30 -46.5h2l100 281h-87z" />
    <glyph glyph-name="e" unicode="e" horiz-adv-x="483" 
d="M175 230q-17 0 -31.5 1.5t-28.5 3.5q-11 -32 -16 -59.5t-5 -52.5q0 -49 25.5 -77.5t73.5 -28.5q45 0 81 24t73 76l28 -16q-43 -61 -89 -87.5t-106 -26.5q-38 0 -68.5 11.5t-52 31.5t-33.5 48t-12 60q0 58 27 117t69.5 107t96 78t106.5 30q57 0 90.5 -25.5t33.5 -67.5
q0 -34 -23 -61t-60 -46t-84 -29.5t-95 -10.5zM313 438q-28 0 -55 -13t-51.5 -36t-45 -54.5t-35.5 -68.5q10 -2 23 -3t30 -1q37 0 71 10.5t59.5 28t40.5 40.5t15 49q0 23 -14 35.5t-38 12.5z" />
    <glyph glyph-name="f" unicode="f" horiz-adv-x="369" 
d="M356 425h-123l-89 -338q-22 -83 -52 -148t-65.5 -110.5t-75.5 -69.5t-82 -24q-40 0 -65 19.5t-25 57.5q0 26 14.5 43t41.5 17q28 0 28 -30q0 -14 -5 -24.5t-5 -25.5q0 -25 30 -25q19 0 39 11t40 37.5t39.5 71t37.5 112.5l114 426h-95l9 32h95l8 30q14 53 42 97t64 75.5
t76.5 48.5t79.5 17q51 0 83 -27t32 -70q0 -26 -14 -41.5t-40 -15.5q-40 0 -40 37q0 10 3.5 17.5t8 13.5t8.5 12t4 14q0 28 -49 28q-33 0 -60.5 -15t-49.5 -41.5t-38.5 -63t-27.5 -78.5l-10 -38h123z" />
    <glyph glyph-name="g" unicode="g" horiz-adv-x="593" 
d="M501 431q-33 0 -61 -34q8 -11 13.5 -26.5t5.5 -32.5q0 -36 -20 -71t-51 -62.5t-69 -44t-75 -16.5q-76 0 -122 37q-42 -17 -58.5 -36.5t-16.5 -39.5q0 -14 6.5 -23t24 -15t47.5 -9t78 -4q36 -1 60 -3t40.5 -4t28 -5.5t22.5 -7.5q36 -15 51 -41t15 -54q0 -47 -22.5 -88.5
t-59.5 -73t-85 -50t-100 -18.5q-45 0 -83.5 10.5t-67.5 28.5t-45.5 41.5t-16.5 49.5q0 42 33 79t96 70q-38 11 -54.5 32.5t-16.5 53.5q0 40 22.5 70t81.5 57q-25 32 -25 79q0 36 20 70t52 60.5t72 43t80 16.5q37 0 70 -13.5t54 -39.5q33 42 90 42q33 0 54 -22t21 -50
q0 -50 -48 -50q-14 0 -23.5 9t-9.5 23q0 8 2.5 12.5t6 9t6 9t2.5 12.5q0 19 -25 19zM239 -24q-45 1 -79.5 2.5t-66.5 4.5q-22 -16 -37 -31.5t-24 -32t-12.5 -35.5t-3.5 -42q0 -48 36.5 -74.5t100.5 -26.5q42 0 80.5 13.5t68 35.5t47 50t17.5 57q0 34 -29 56t-98 23zM298 438
q-33 0 -58.5 -18.5t-43 -45t-27 -56.5t-9.5 -53q0 -89 85 -89q33 0 57.5 17.5t41 44.5t25 59.5t8.5 62.5q0 37 -19.5 57.5t-59.5 20.5z" />
    <glyph glyph-name="h" unicode="h" horiz-adv-x="604" 
d="M248 689h-90l10 32h171l-144 -388h2q37 55 89 92.5t115 37.5q45 0 73 -24.5t28 -59.5q0 -9 -1 -16t-3 -16t-6.5 -21.5t-11.5 -31.5l-65 -177q-9 -25 -12.5 -40t-3.5 -27q0 -31 26 -31q46 0 89 82l29 -12q-28 -54 -62.5 -78t-82.5 -24q-37 0 -59.5 16.5t-22.5 46.5
q0 12 3 25.5t11 34.5l83 228q10 26 10 47t-12.5 33.5t-35.5 12.5q-24 0 -55.5 -17.5t-62.5 -48.5t-58.5 -72t-43.5 -87l-74 -206h-83z" />
    <glyph glyph-name="i" unicode="i" horiz-adv-x="307" 
d="M117 108q-8 -23 -11.5 -36.5t-3.5 -24.5q0 -13 8 -20.5t21 -7.5q24 0 49.5 22.5t42.5 57.5l30 -11q-28 -52 -62.5 -76.5t-79.5 -24.5q-85 0 -85 65q0 30 16 71l106 302h-88l9 32h169zM207 661q0 21 15 36t36 15t36 -15t15 -36t-15 -36t-36 -15t-36 15t-15 36z" />
    <glyph glyph-name="j" unicode="j" horiz-adv-x="314" 
d="M76 425l10 32h171l-166 -462q-23 -63 -52 -111.5t-60 -81.5t-63.5 -49.5t-62.5 -16.5q-38 0 -62 23t-24 61q0 25 14.5 42t36.5 17q16 0 25.5 -8.5t9.5 -24.5t-6 -25.5t-6 -23.5q0 -13 8.5 -21t25.5 -8q12 0 24 7t25 24t27 44.5t29 68.5l187 513h-91zM221 661q0 21 15 36
t36 15t36 -15t15 -36t-15 -36t-36 -15t-36 15t-15 36z" />
    <glyph glyph-name="k" unicode="k" horiz-adv-x="594" 
d="M194 297h21q32 0 61.5 19t64.5 70q26 38 53.5 57.5t65.5 19.5q34 0 51 -17t17 -46q0 -25 -15.5 -37.5t-35.5 -12.5q-17 0 -26 9t-9 23q0 13 4 19.5t4 17.5q0 12 -13 12q-15 0 -31.5 -16t-48.5 -58q-23 -32 -45 -49t-36 -22v-3q33 -5 49.5 -22.5t25.5 -60.5l25 -119
q6 -30 14.5 -43t24.5 -13q18 0 38.5 19t37.5 55l30 -9q-29 -59 -63.5 -81t-79.5 -22q-31 0 -49 17t-27 55l-34 148q-7 31 -20 45t-39 14h-26l-95 -266h-80l246 689h-89l11 32h170z" />
    <glyph glyph-name="l" unicode="l" horiz-adv-x="311" 
d="M117 108q-8 -23 -11.5 -36.5t-3.5 -24.5q0 -13 8 -20.5t21 -7.5q24 0 49.5 22.5t42.5 57.5l30 -11q-28 -52 -62.5 -76.5t-79.5 -24.5q-85 0 -85 65q0 30 16 71l202 566h-88l10 32h168z" />
    <glyph glyph-name="m" unicode="m" horiz-adv-x="873" 
d="M154 425h-90l9 32h168l-39 -116h2q96 122 192 122q45 0 68.5 -23t23.5 -60q0 -8 -1.5 -17.5t-5.5 -17.5h2q45 58 92 88t92 30q48 0 74 -24t26 -58q0 -14 -1.5 -25t-9.5 -31l-75 -202q-10 -26 -13.5 -43t-3.5 -31q0 -30 26 -30q24 0 47 21t42 61l29 -12q-27 -57 -62 -79.5
t-80 -22.5q-39 0 -62 15.5t-23 46.5q0 13 3 26t12 38l81 221q8 21 11 33.5t3 25.5q0 38 -41 38q-25 0 -55 -17t-59.5 -45.5t-55 -66.5t-40.5 -79l-80 -223h-80l118 325q17 42 17 67q0 20 -10.5 29.5t-27.5 9.5q-26 0 -56 -17t-59.5 -45.5t-55 -67t-41.5 -81.5l-80 -220h-80z
" />
    <glyph glyph-name="n" unicode="n" horiz-adv-x="620" 
d="M156 425h-89l9 32h169l-42 -124h2q37 55 88.5 92.5t114.5 37.5q45 0 73 -24.5t28 -59.5q0 -9 -1 -16t-3 -16t-6.5 -21.5t-11.5 -31.5l-65 -177q-9 -25 -12.5 -40t-3.5 -27q0 -31 26 -31q46 0 89 82l29 -12q-28 -54 -62.5 -78t-82.5 -24q-37 0 -59.5 16.5t-22.5 46.5
q0 12 3 25.5t11 34.5l83 228q10 26 10 47t-12.5 33.5t-35.5 12.5q-24 0 -55.5 -17.5t-62.5 -48.5t-58.5 -72t-43.5 -87l-74 -206h-80z" />
    <glyph glyph-name="o" unicode="o" horiz-adv-x="551" 
d="M305 470q40 0 71 -16t52.5 -42t33 -58.5t11.5 -64.5q0 -59 -26.5 -113.5t-68 -96.5t-93 -67t-101.5 -25q-36 0 -67.5 14t-55 39t-36.5 58.5t-13 72.5q0 60 26.5 114t68.5 95.5t94 65.5t104 24zM291 438q-42 0 -78.5 -31t-63 -77t-41.5 -98.5t-15 -94.5q0 -55 25 -86.5
t70 -31.5q43 0 80.5 32t65 78.5t43 100t15.5 95.5q0 54 -25 83.5t-76 29.5z" />
    <glyph glyph-name="p" unicode="p" horiz-adv-x="596" 
d="M154 425h-92l9 32h168l-22 -69h2q26 38 62.5 60t78.5 22q36 0 65 -13.5t49.5 -38t32 -59t11.5 -76.5q0 -51 -23.5 -104t-62.5 -95.5t-90 -69.5t-106 -27q-48 0 -81 23.5t-41 66.5h-2l-114 -324h85l-9 -32h-239l9 32h74zM131 130q11 -57 38 -84t69 -27q38 0 74 30.5
t63.5 76t44 98.5t16.5 98q0 60 -23.5 88t-61.5 28t-72.5 -24.5t-76.5 -84.5z" />
    <glyph glyph-name="q" unicode="q" horiz-adv-x="589" 
d="M283 -247h79l-9 -32h-249l9 32h90l121 336l-2 2q-46 -54 -90.5 -79t-89.5 -25q-28 0 -52 9.5t-41 27t-27 41.5t-10 53q0 42 16 84t42 81.5t60 73.5t70.5 59t72.5 39.5t67 14.5q85 0 94 -70h2l19 57h80zM401 313q10 26 10 44q0 37 -19.5 59t-53.5 22q-31 0 -61 -18.5
t-57 -47.5t-50.5 -66t-40.5 -74.5t-26.5 -71.5t-9.5 -58q0 -38 16.5 -60.5t47.5 -22.5q26 0 57 16t60 41.5t51.5 55.5t32.5 59z" />
    <glyph glyph-name="r" unicode="r" horiz-adv-x="430" 
d="M206 342q46 67 83 94t72 27t57 -21t22 -54q0 -32 -15 -50.5t-47 -18.5q-15 0 -24.5 8t-9.5 24q0 10 4.5 16t9.5 11.5t9.5 12t4.5 17.5t-8 17t-20 6q-20 0 -45 -18.5t-50.5 -49t-48.5 -69.5t-38 -81l-75 -213h-80l97 278q17 51 28 84.5t19 62.5h-86l9 32h164
q-5 -23 -14 -53t-20 -60z" />
    <glyph glyph-name="s" unicode="s" horiz-adv-x="406" 
d="M26 137q12 0 18.5 -8t6.5 -19q0 -16 -5 -25t-5 -23q0 -22 14.5 -32.5t47.5 -10.5q51 0 75.5 23.5t24.5 55.5q0 14 -4.5 31t-23.5 41l-56 74q-18 23 -24 43.5t-6 37.5q0 28 13 54.5t35.5 46.5t52.5 32t63 12q51 0 77 -23t26 -57q0 -54 -48 -54q-36 0 -36 31q0 15 6.5 22.5
t6.5 18.5q0 30 -40 30q-43 0 -67.5 -20.5t-24.5 -51.5q0 -15 7 -32.5t29 -46.5l55 -72q15 -20 21 -40t6 -45q0 -30 -15 -56t-40 -45.5t-57.5 -30.5t-67.5 -11q-54 0 -89 27t-35 69q0 24 16.5 39t42.5 15z" />
    <glyph glyph-name="t" unicode="t" horiz-adv-x="363" 
d="M362 425h-132l-108 -299q-11 -29 -14.5 -44t-3.5 -30q0 -33 33 -33q23 0 48 21t48 69l30 -12q-30 -58 -67 -84t-85 -26q-42 0 -63.5 18t-21.5 46q0 33 19 84l105 290h-89l9 32h90l40 109h80l-40 -109h131z" />
    <glyph glyph-name="u" unicode="u" horiz-adv-x="589" 
d="M119 119q-8 -24 -11.5 -39t-3.5 -26q0 -16 10.5 -25.5t30.5 -9.5q27 0 60 20.5t65 54t59 75.5t42 85l70 203h80l-122 -349q-9 -26 -12 -38.5t-3 -21.5q0 -29 28 -29q26 0 50.5 22.5t42.5 57.5l30 -11q-30 -54 -66.5 -77.5t-81.5 -23.5q-38 0 -59.5 15t-21.5 45
q0 27 14 66l-2 2q-98 -128 -196 -128q-45 0 -70.5 20.5t-25.5 57.5q0 12 3 26.5t12 40.5l104 293h-88l9 32h171z" />
    <glyph glyph-name="v" unicode="v" horiz-adv-x="490" 
d="M89 -2q5 9 8 19.5t3 25.5q0 13 -8 38t-17 57t-17 69t-8 73q0 54 29 98.5t80 82.5l24 18l22 -23q-23 -21 -38.5 -38t-24.5 -33.5t-12.5 -34t-3.5 -39.5q0 -57 12.5 -110.5t35.5 -118.5q26 18 57 43.5t60 55.5q32 32 53.5 68t21.5 74q0 25 -5.5 40.5t-12 27t-12 21.5
t-5.5 25q0 34 49 34q28 0 44 -19.5t16 -58.5q0 -36 -11.5 -69.5t-30.5 -64t-43.5 -58t-50.5 -50.5q-19 -17 -38.5 -33t-37 -30t-31.5 -25.5t-22 -19.5q-17 -17 -29 -32.5t-19 -28.5z" />
    <glyph glyph-name="w" unicode="w" horiz-adv-x="760" 
d="M359 -2q5 9 8 19.5t3 25.5q0 10 -4.5 26.5t-11.5 37.5t-14 45.5t-12 51.5q-17 -24 -39 -48t-44 -45.5t-41 -39.5t-29 -28q-17 -17 -29 -32.5t-19 -28.5l-38 16q5 9 8 19.5t3 25.5q0 13 -8 38t-17 57t-17 69t-8 73q0 54 29 98.5t80 82.5l24 18l22 -23q-23 -21 -38.5 -38
t-24.5 -33.5t-12.5 -34t-3.5 -39.5q0 -57 12.5 -110.5t35.5 -118.5q38 32 75 73t72 93q-1 8 -1 16v16q0 54 29 98.5t80 82.5l24 18l22 -23q-23 -21 -38.5 -38t-24.5 -33.5t-12.5 -34t-3.5 -39.5q0 -57 12.5 -110.5t35.5 -118.5q26 18 57 43.5t60 55.5q32 32 53.5 68t21.5 74
q0 25 -5.5 40.5t-12 27t-12 21.5t-5.5 25q0 34 49 34q28 0 44 -19.5t16 -58.5q0 -36 -11.5 -69.5t-30.5 -64t-43.5 -58t-50.5 -50.5q-19 -17 -38.5 -33t-37 -30t-31.5 -25.5t-22 -19.5q-17 -17 -29 -32.5t-19 -28.5z" />
    <glyph glyph-name="x" unicode="x" horiz-adv-x="646" 
d="M238 470q38 0 66.5 -24.5t39.5 -76.5q31 45 72.5 73t86.5 28t73 -28.5t28 -73.5q0 -29 -18.5 -47t-48.5 -18q-32 0 -32 30q0 13 4.5 21t10 15.5t10 16t4.5 22.5q0 13 -9.5 21.5t-26.5 8.5q-29 0 -58 -25t-60 -82q-15 -28 -28.5 -61.5t-23.5 -66t-16 -61t-6 -46.5
q0 -36 15.5 -56.5t40.5 -20.5q75 0 134 101l29 -13q-75 -120 -170 -120q-38 0 -66.5 22.5t-39.5 76.5q-45 -56 -84 -77.5t-79 -21.5q-51 0 -80.5 26.5t-29.5 69.5q0 32 18 50.5t48 18.5q14 0 23 -9t9 -23q0 -12 -4.5 -18.5t-10 -13.5t-10 -15t-4.5 -23q0 -14 9 -22.5
t34 -8.5q18 0 35.5 5.5t34.5 19.5t33.5 38t33.5 62q12 29 23 61t19.5 62t13.5 55.5t5 40.5q0 36 -16 55.5t-44 19.5q-37 0 -69.5 -28t-58.5 -73l-29 13q65 120 169 120z" />
    <glyph glyph-name="y" unicode="y" horiz-adv-x="500" 
d="M7 342q14 57 45.5 92.5t93.5 35.5q30 0 50 -12t32 -33t17 -50.5t5 -64.5q0 -60 -6 -112t-17 -101h2l111 200q27 48 48.5 81t40.5 53.5t37.5 29.5t40.5 9q21 0 33 -10t12 -27q0 -16 -9 -26.5t-23 -10.5q-6 0 -12 3t-14 3q-18 0 -34.5 -10t-35.5 -32.5t-42.5 -60
t-54.5 -92.5q-42 -73 -81 -143.5t-79 -145.5q-20 -39 -42 -72t-46.5 -58t-51.5 -39t-58 -14q-45 0 -69 25t-24 65q0 52 57 52q16 0 23 -8.5t7 -21.5q0 -16 -5 -26t-5 -27q0 -11 9.5 -18.5t25.5 -7.5q28 0 59.5 36.5t57.5 96.5t43 136.5t17 157.5q0 75 -4 120.5t-11 70.5
t-16.5 33t-21.5 8q-25 0 -43.5 -24.5t-30.5 -69.5z" />
    <glyph glyph-name="z" unicode="z" horiz-adv-x="538" 
d="M334 379q-22 1 -53 2.5t-61 2.5t-54.5 1.5t-33.5 0.5q-18 0 -27 -7t-13 -21l-6 -24l-31 6q3 10 7 24.5t7.5 29.5t7 27.5t5.5 18.5q6 21 41 21q10 0 31.5 -0.5t48.5 -1.5t56.5 -2t56 -2t47 -1.5t29.5 -0.5q10 0 16.5 4.5t10.5 9.5l24 -20l-331 -353q54 0 92.5 -11t67 -24
t51 -24t45.5 -11q17 0 24.5 8.5t7.5 20.5q0 18 -19 33q-14 11 -19 21t-5 26q0 17 12 29t33 12q28 0 41 -18.5t13 -48.5q0 -60 -37 -90t-103 -30q-24 0 -49.5 6t-52.5 13.5t-56.5 13.5t-61.5 6q-30 0 -51.5 -15.5t-32.5 -29.5l-26 22z" />
    <glyph glyph-name="braceleft" unicode="{" horiz-adv-x="409" 
d="M22 227q40 6 68.5 15.5t48 24t32 36t20.5 51.5l44 164q15 55 32 92.5t42 60t60.5 32t86.5 9.5l-9 -34q-41 0 -68.5 -7.5t-47 -26.5t-33.5 -50.5t-27 -80.5l-38 -147q-18 -73 -54 -107t-106 -42l-1 -2q22 -1 39 -10t28.5 -23t17.5 -31.5t6 -35.5q0 -11 -2.5 -27t-10.5 -43
l-34 -126q-14 -53 -14 -86q0 -35 25.5 -55.5t73.5 -23.5l-11 -34q-126 16 -126 111q0 18 3.5 38t13.5 58l32 121q7 25 9.5 39t2.5 27q0 36 -25.5 58.5t-82.5 33.5z" />
    <glyph glyph-name="bar" unicode="|" horiz-adv-x="234" 
d="M101 750h32v-1000h-32v1000z" />
    <glyph glyph-name="braceright" unicode="}" horiz-adv-x="409" 
d="M321 205q-41 -6 -69.5 -15.5t-48.5 -24t-32.5 -36t-20.5 -51.5l-45 -164q-15 -56 -32.5 -93t-43 -59.5t-61 -32t-86.5 -9.5l9 34q40 0 68 7.5t48 26t34 50.5t27 81l40 147q10 36 23.5 62.5t32.5 44.5t45 28t62 14l1 2q-22 1 -39 10t-28.5 23t-17.5 31.5t-6 35.5
q0 11 2.5 27t10.5 43l36 126q14 53 14 86q0 35 -25.5 55.5t-71.5 23.5l11 34q124 -16 124 -111q0 -18 -4 -38.5t-14 -57.5l-33 -121q-6 -23 -8.5 -38t-2.5 -28q0 -36 24.5 -58.5t81.5 -33.5z" />
    <glyph glyph-name="asciitilde" unicode="~" horiz-adv-x="593" 
d="M16 162q19 72 52.5 105.5t84.5 33.5q17 0 37.5 -5t49.5 -16l124 -47q34 -14 50.5 -18.5t32.5 -4.5q64 0 102 110h28q-41 -140 -133 -140q-17 0 -35.5 4.5t-52.5 17.5l-122 47q-54 22 -88 22q-35 0 -59 -24.5t-43 -84.5h-28z" />
    <glyph glyph-name="uni00A0" unicode="&#xa0;" horiz-adv-x="241" 
 />
    <glyph glyph-name="exclamdown" unicode="&#xa1;" horiz-adv-x="335" 
d="M206 252l-94 -486q-5 -27 -17 -42t-35 -15q-22 0 -35 13t-13 34q0 15 7 33l162 469zM285 394q0 -22 -15.5 -37.5t-37.5 -15.5t-37.5 15.5t-15.5 37.5t15.5 37.5t37.5 15.5t37.5 -15.5t15.5 -37.5z" />
    <glyph glyph-name="cent" unicode="&#xa2;" horiz-adv-x="481" 
d="M387 101q-81 -114 -199 -114q-30 0 -57 9l-38 -74l-27 12l38 72q-39 20 -60.5 57.5t-21.5 88.5t25.5 107.5t68 103t97.5 77t115 30.5h9.5t9.5 -1l28 52l26 -12l-24 -45q69 -22 69 -93q0 -38 -17 -54t-46 -16q-14 0 -22 9t-8 23q0 12 4 19t9.5 13t9.5 13.5t4 19.5
q0 25 -20 33l-210 -400q22 -12 54 -12q40 0 81.5 24.5t73.5 72.5zM103 116q0 -41 23 -67l205 389h-10q-48 0 -88 -32.5t-69 -81t-45 -105t-16 -103.5z" />
    <glyph glyph-name="sterling" unicode="&#xa3;" horiz-adv-x="593" 
d="M246 358l-8 -92q-5 -58 -12.5 -100t-21.5 -72q37 -13 75.5 -19.5t71.5 -6.5q45 0 72 12t43 47l28 -14q-67 -127 -162 -127q-28 0 -51.5 8t-54.5 28l-46 30q-44 -57 -103 -57q-36 0 -56.5 16.5t-20.5 41.5q0 33 20.5 53t65.5 20q16 0 39 -5t50 -16q15 34 15 78
q0 19 -1 38.5t-4 51.5l-9 85h-99l9 32h88q-2 24 -4 43.5t-2 38.5q0 51 21.5 97t56 80.5t78.5 55t89 20.5q30 0 55.5 -9t44 -25t29.5 -39t11 -50q0 -34 -14.5 -53.5t-37.5 -19.5q-19 0 -30 8.5t-11 22.5t5 23.5t10.5 18.5t10.5 18.5t5 24.5q0 21 -18.5 34.5t-54.5 13.5
q-34 0 -61.5 -12t-48.5 -40.5t-34.5 -75.5t-19.5 -117l-5 -58h147l-9 -32h-141zM77 27q44 0 75 43q-23 14 -38.5 19t-32.5 5q-49 0 -49 -37q0 -15 12.5 -22.5t32.5 -7.5z" />
    <glyph glyph-name="currency" unicode="&#xa4;" horiz-adv-x="556" 
d="M75 357q0 37 12.5 70.5t34.5 59.5l-64 65l25 25l64 -65q54 48 131 48q38 0 71.5 -13t59.5 -36l65 65l25 -25l-65 -64q22 -26 34.5 -59.5t12.5 -70.5q0 -75 -48 -131l65 -64l-25 -25l-64 65q-56 -48 -131 -48q-38 0 -71 12.5t-60 34.5l-64 -64l-25 25l65 64
q-48 54 -48 131zM275 528q-34 0 -64.5 -13.5t-53.5 -37t-36.5 -54.5t-13.5 -66t13.5 -66.5t36.5 -54.5t54.5 -36.5t66.5 -13.5t66 13.5t54.5 37t37 54.5t13.5 67q0 35 -13.5 66t-37.5 54t-55.5 36.5t-67.5 13.5z" />
    <glyph glyph-name="yen" unicode="&#xa5;" horiz-adv-x="648" 
d="M-3 301h198l2 7l-19 100h-151l8 32h137l-46 240h-92l9 32h273l-9 -32h-95l59 -341l235 341h-79l9 32h184l-9 -32h-65l-167 -240h137l-10 -32h-149l-74 -107h195l-9 -32h-196l-64 -237h97l-9 -32h-275l8 32h93l64 237h-198z" />
    <glyph glyph-name="brokenbar" unicode="&#xa6;" horiz-adv-x="234" 
d="M101 675h32v-350h-32v350zM101 175h32v-350h-32v350z" />
    <glyph glyph-name="section" unicode="&#xa7;" horiz-adv-x="519" 
d="M458 651q0 19 -21.5 30.5t-57.5 11.5q-26 0 -53 -10.5t-49 -28.5t-36 -42.5t-14 -51.5q0 -35 16 -64.5t52 -58.5l73 -57q42 -32 57.5 -60t15.5 -66q0 -58 -41.5 -114.5t-116.5 -102.5q23 -26 33 -49t10 -49q0 -44 -19 -85.5t-52 -73.5t-77.5 -51.5t-95.5 -19.5
q-33 0 -61.5 8t-49 23t-32 36t-11.5 47q0 28 14 45t38 17q19 0 28.5 -9.5t9.5 -23.5q0 -13 -7 -26t-7 -30q0 -24 24 -39.5t60 -15.5q33 0 63 13t53 35t36.5 51t13.5 62q0 34 -13.5 60t-47.5 52l-74 57q-46 35 -66 68.5t-20 78.5q0 32 7.5 58t25.5 51t48 50t75 55
q-17 21 -23.5 41.5t-6.5 42.5q0 47 20.5 85.5t53.5 66t73.5 42.5t81.5 15q28 0 52 -8t42 -22.5t28 -34t10 -41.5q0 -66 -49 -66q-17 0 -27.5 9.5t-10.5 23.5q0 9 4 16t8.5 14t8.5 15t4 20zM240 383q-10 8 -17.5 14.5t-15.5 14.5q-37 -26 -61.5 -47t-38.5 -39.5t-20 -36.5
t-6 -38q0 -23 11 -44.5t37 -41.5l112 -89l22 -19q54 32 87 72t33 85q0 29 -13 52.5t-42 46.5z" />
    <glyph glyph-name="dieresis" unicode="&#xa8;" 
d="M270 635q0 20 13.5 33.5t33.5 13.5t33.5 -13.5t13.5 -33.5t-13.5 -33.5t-33.5 -13.5t-33.5 13.5t-13.5 33.5zM86 635q0 20 13.5 33.5t33.5 13.5t33.5 -13.5t13.5 -33.5t-13.5 -33.5t-33.5 -13.5t-33.5 13.5t-13.5 33.5z" />
    <glyph glyph-name="copyright" unicode="&#xa9;" horiz-adv-x="833" 
d="M568 447h-20q-20 114 -126 114q-75 0 -109 -47.5t-34 -152.5t33 -151t108 -46q30 0 52 6t37.5 19.5t27 36.5t20.5 58h19v-136h-19q-10 13 -26 13q-11 0 -21 -3.5t-22.5 -7.5t-28.5 -7.5t-39 -3.5q-44 0 -82 18t-66.5 48t-45 70.5t-16.5 85.5q0 47 17 88t46 71.5t67.5 48
t81.5 17.5q20 0 34.5 -3.5t26 -8t21 -8t19.5 -3.5q15 0 26 12h19v-128zM416 730q77 0 145 -29.5t118.5 -80t80 -118.5t29.5 -145t-29.5 -145t-80 -118t-118.5 -79t-145 -29t-145 29t-118 79.5t-79 118.5t-29 145t29 145t79 118.5t118 79.5t145 29zM417 698
q-71 0 -132.5 -26.5t-108 -73t-73 -108.5t-26.5 -132q0 -71 26.5 -132.5t73 -108t108 -73t132.5 -26.5q70 0 132 26.5t108.5 73t73 108t26.5 132.5q0 70 -26.5 132t-73 108.5t-108.5 73t-132 26.5z" />
    <glyph glyph-name="ordfeminine" unicode="&#xaa;" horiz-adv-x="346" 
d="M409 717l-66 -183q-5 -14 -8 -28t-3 -22q0 -14 11 -14q27 0 56 54l21 -9q-20 -38 -41.5 -55t-50.5 -17q-55 0 -55 42q0 4 0.5 8.5t1.5 9.5q-29 -32 -52.5 -45.5t-49.5 -13.5q-36 0 -59.5 24t-23.5 62q0 31 19 66t48.5 65t64 49.5t65.5 19.5q39 0 54 -35l8 22h60zM149 504
q0 -36 32 -36q15 0 32.5 9.5t34 24t30 32.5t19.5 36l25 73q2 8 3.5 12.5t1.5 11.5q0 18 -12.5 29t-32.5 11q-21 0 -44.5 -20t-43 -50t-32.5 -66t-13 -67z" />
    <glyph glyph-name="guillemotleft" unicode="&#xab;" horiz-adv-x="435" 
d="M129 69q-109 42 -109 142q0 63 49.5 106t134.5 52v-32q-57 -6 -90.5 -46.5t-33.5 -106.5q0 -60 61 -85zM278 57q-109 42 -109 142q0 63 49.5 106t134.5 52v-32q-57 -6 -90.5 -46.5t-33.5 -106.5q0 -60 61 -85z" />
    <glyph glyph-name="logicalnot" unicode="&#xac;" horiz-adv-x="593" 
d="M502 303h-446v32h480v-190h-34v158z" />
    <glyph glyph-name="uni00AD" unicode="&#xad;" horiz-adv-x="370" 
d="M63 243h174l-16 -59h-174z" />
    <glyph glyph-name="registered" unicode="&#xae;" horiz-adv-x="606" 
d="M208 640h-56v21h147q54 0 83.5 -20.5t29.5 -55.5q0 -25 -14 -40.5t-46 -23.5v-2q43 -12 57 -32.5t14 -60.5q1 -29 6.5 -40t21.5 -11q11 0 18 5l9 -18q-8 -5 -16.5 -7t-21.5 -2q-42 0 -56.5 17.5t-18.5 62.5q-3 40 -14.5 58t-42.5 18h-44v-131h56v-21h-168v21h56v262z
M305 530q27 0 37.5 11.5t10.5 42.5t-13.5 43.5t-38.5 12.5h-37v-110h41zM61 502q0 -50 19 -94t52 -77t77 -52t94 -19t94 19t77 52t52 77t19 94t-19 94t-52 77t-77 52t-94 19t-94 -19t-77 -52t-52 -77t-19 -94zM35 502q0 55 21 104t57.5 85.5t85 57.5t104.5 21q55 0 104 -21
t85.5 -57.5t57.5 -85.5t21 -104q0 -56 -21 -104.5t-57.5 -85t-85.5 -57.5t-104 -21q-56 0 -104.5 21t-85 57.5t-57.5 85t-21 104.5z" />
    <glyph glyph-name="macron" unicode="&#xaf;" 
d="M378 643l-16 -42h-281l16 42h281z" />
    <glyph glyph-name="degree" unicode="&#xb0;" horiz-adv-x="275" 
d="M65 592q0 28 10.5 52.5t29 43t43 29t52.5 10.5t52.5 -10.5t43 -29t29 -43t10.5 -52.5t-10.5 -52.5t-29 -43t-43 -29t-52.5 -10.5t-52.5 10.5t-43 29t-29 43t-10.5 52.5zM97 592q0 -21 8 -40t22 -33t33 -22t40 -8t40 8t33 22t22 33t8 40t-8 40t-22 33t-33 22t-40 8t-40 -8
t-33 -22t-22 -33t-8 -40z" />
    <glyph glyph-name="plusminus" unicode="&#xb1;" horiz-adv-x="593" 
d="M57 0v32h479v-32h-479zM280 256h-223v32h223v191h34v-191h222v-32h-222v-191h-34v191z" />
    <glyph glyph-name="uni00B2" unicode="&#xb2;" horiz-adv-x="256" 
d="M107 489h104q19 0 27 4.5t13 15.5l7 17h22l-28 -81h-204l-4 19q13 10 31.5 25t38 31.5t38 32t31.5 26.5q46 39 68.5 71t22.5 63q0 40 -46 40q-20 0 -32 -10.5t-13 -28.5q-2 -35 -27 -35q-11 0 -18.5 6t-7.5 15q0 15 9 28.5t24 24.5t33 17.5t36 6.5q42 0 68 -22.5
t26 -50.5q0 -18 -7.5 -33.5t-23.5 -32.5t-42 -38t-63 -49z" />
    <glyph glyph-name="uni00B3" unicode="&#xb3;" horiz-adv-x="251" 
d="M134 619q72 11 103.5 35.5t31.5 69.5q0 29 -31 29q-21 0 -30 -7t-11 -22q-2 -17 -8 -22.5t-19 -5.5q-12 0 -19 6.5t-7 14.5q0 12 8 23t21.5 19t30.5 13t35 5q35 0 58.5 -19.5t23.5 -42.5q0 -32 -29.5 -56t-83.5 -41q38 -4 56.5 -21t18.5 -45q0 -21 -16.5 -41.5t-41.5 -37
t-55.5 -27t-57.5 -10.5t-44.5 11t-17.5 28q0 11 8 17.5t20 6.5q10 0 14.5 -4t11.5 -18q5 -10 10 -13.5t16 -3.5q17 0 35 8t32.5 21t24 30t9.5 34q0 23 -12.5 37t-32.5 14q-10 0 -20 -2t-28 -7z" />
    <glyph glyph-name="acute" unicode="&#xb4;" 
d="M299 692q18 17 28 23.5t21 6.5q13 0 21.5 -8t8.5 -21q0 -11 -7.5 -21t-35.5 -27l-150 -93h-34z" />
    <glyph glyph-name="mu" unicode="&#xb5;" horiz-adv-x="589" 
d="M118 117q-15 -42 -15 -71q0 -16 8.5 -25.5t26.5 -9.5q28 0 62.5 21.5t67.5 56t60.5 78t42.5 87.5l70 203h80l-122 -349q-9 -26 -12 -38.5t-3 -21.5q0 -29 28 -29q24 0 49.5 22.5t43.5 57.5l30 -11q-30 -54 -66 -77.5t-81 -23.5q-38 0 -60 15t-22 45q0 29 15 68l-2 2
q-48 -63 -94.5 -96.5t-88.5 -33.5q-21 0 -36 7.5t-21 24.5l-103 -298h-81l250 704h-88l9 32h171z" />
    <glyph glyph-name="paragraph" unicode="&#xb6;" horiz-adv-x="574" 
d="M100 -73q21 29 46.5 82t56.5 138l45 125q-38 5 -71 21t-57.5 42t-38.5 62.5t-14 81.5q0 112 88.5 172.5t263.5 60.5h260l-11 -32h-78l-209 -581q-27 -74 -69.5 -127t-93 -88t-105.5 -51.5t-106 -16.5q-28 0 -50 9t-37.5 23.5t-23.5 33.5t-8 39q0 24 18 39t46 15
q44 0 44 -30q0 -9 -4.5 -17.5t-9.5 -16.5t-9.5 -16t-4.5 -15q0 -19 23 -19q26 0 54 14t55 52zM237 147q-31 -86 -56.5 -142t-50.5 -90.5t-53 -50.5t-63 -22v-2q60 4 107.5 26t84 58t64 85.5t48.5 108.5l202 562h-92z" />
    <glyph glyph-name="periodcentered" unicode="&#xb7;" horiz-adv-x="250" 
d="M70 336q0 23 16 39.5t39 16.5t39.5 -16.5t16.5 -39.5t-16.5 -39t-39.5 -16t-39 16t-16 39z" />
    <glyph glyph-name="cedilla" unicode="&#xb8;" 
d="M127 0l-75 -71l1 -1q19 11 48 11q12 0 25 -4.5t23 -13.5t16.5 -23.5t6.5 -34.5q0 -25 -10 -46t-26.5 -36.5t-39 -24t-47.5 -8.5t-46.5 9t-34.5 22l21 26q28 -24 62 -24q33 0 49 25.5t16 57.5q0 21 -8.5 33t-28.5 12q-31 0 -54 -17l-19 27l83 81h38z" />
    <glyph glyph-name="uni00B9" unicode="&#xb9;" horiz-adv-x="202" 
d="M119 469l83 239q-14 -9 -35 -19.5t-41 -17.5l-8 22q43 19 77.5 37t58.5 38h18l-104 -299h49l-9 -24h-144l9 24h46z" />
    <glyph glyph-name="ordmasculine" unicode="&#xba;" horiz-adv-x="345" 
d="M289 730q22 0 41 -9t33.5 -24t22.5 -36t8 -45q0 -33 -15.5 -65.5t-40 -58t-56.5 -41t-65 -15.5q-23 0 -42 9t-33.5 25t-22.5 37.5t-8 47.5q0 32 15.5 63.5t40.5 56t57 40t65 15.5zM283 707q-41 0 -69 -45q-9 -14 -17.5 -32.5t-14.5 -38t-10 -38.5t-4 -34q0 -28 14 -44
t38 -16q22 0 38.5 12.5t35.5 41.5q20 31 31.5 68.5t11.5 68.5q0 26 -14.5 41.5t-39.5 15.5z" />
    <glyph glyph-name="guillemotright" unicode="&#xbb;" horiz-adv-x="441" 
d="M61 369q109 -42 109 -142q0 -63 -49.5 -106t-134.5 -52v32q57 6 90.5 46.5t33.5 106.5q0 60 -61 85zM215 354q109 -42 109 -142q0 -63 -49.5 -106t-134.5 -52v32q57 6 90.5 46.5t33.5 106.5q0 60 -61 85z" />
    <glyph glyph-name="onequarter" unicode="&#xbc;" horiz-adv-x="816" 
d="M738 376q-85 -63 -147.5 -124.5t-110.5 -125.5h138l38 140h58l-38 -140h66l-8 -32h-67l-16 -62h50l-8 -32h-158l9 32h49l16 62h-186q16 27 34 53t43 56.5t59 67.5t81 86q23 24 36.5 37t22.5 19t16 7t17 1q33 0 33 -16q0 -6 -4 -10.5t-23 -18.5zM63 308h70l86 318
q-18 -12 -45 -25.5t-56 -27.5l-15 31q102 43 159 93h32l-104 -389h64l-9 -32h-191zM594 716l32 -18l-432 -722l-32 18z" />
    <glyph glyph-name="onehalf" unicode="&#xbd;" horiz-adv-x="816" 
d="M479 51h133q26 0 36.5 5.5t15.5 20.5l5 17h29l-25 -94h-255l-10 20q15 13 38.5 35t49 45.5t48 45t36.5 35.5q28 28 47 49t31 38.5t17.5 32.5t5.5 31q0 26 -17 41.5t-47 15.5q-57 0 -57 -55q0 -40 -33 -40q-12 0 -19.5 8.5t-7.5 21.5q0 18 11 35.5t28.5 31t40 22t45.5 8.5
q24 0 45.5 -7.5t37.5 -20.5t25.5 -31t9.5 -38q0 -18 -7.5 -35.5t-25 -39t-47 -48t-73.5 -61.5zM63 308h70l86 318q-18 -12 -45 -25.5t-56 -27.5l-15 31q102 43 159 93h32l-104 -389h64l-9 -32h-191zM594 716l32 -18l-432 -722l-32 18z" />
    <glyph glyph-name="threequarters" unicode="&#xbe;" horiz-adv-x="816" 
d="M738 376q-85 -63 -147.5 -124.5t-110.5 -125.5h138l38 140h58l-38 -140h66l-8 -32h-67l-16 -62h50l-8 -32h-158l9 32h49l16 62h-186q16 27 34 53t43 56.5t59 67.5t81 86q23 24 36.5 37t22.5 19t16 7t17 1q33 0 33 -16q0 -6 -4 -10.5t-23 -18.5zM108 503q82 13 117 39.5
t35 80.5q0 42 -50 42q-24 0 -37.5 -10t-13.5 -33q0 -22 -6 -29t-23 -7q-30 0 -30 30q0 16 10 30.5t26.5 25.5t37.5 18t44 7q45 0 74.5 -23t29.5 -56q0 -71 -129 -117q97 -9 97 -83q0 -27 -18 -54.5t-46 -50.5t-62.5 -37.5t-67.5 -14.5q-35 0 -59 15.5t-24 41.5q0 10 8 16.5
t21 6.5q11 0 17 -4t14 -18q9 -16 19.5 -19.5t27.5 -3.5q21 0 40.5 10.5t34.5 28.5t24 41t9 47q0 25 -15.5 41t-40.5 16q-11 0 -23 -2.5t-32 -7.5zM594 716l32 -18l-432 -722l-32 18z" />
    <glyph glyph-name="questiondown" unicode="&#xbf;" horiz-adv-x="417" 
d="M291 248l-17 -66q-7 -26 -19 -45t-33 -42l-74 -80q-35 -38 -59 -90t-24 -103q0 -38 22.5 -59.5t64.5 -21.5q45 0 65 21t20 66q0 46 44 46q18 0 29 -12t11 -31q0 -22 -12.5 -44t-35 -39t-53 -28t-66.5 -11q-78 0 -123.5 38.5t-45.5 102.5q0 52 25 92t63 71l95 75
q36 29 52 52t23 49l18 68zM367 394q0 -22 -15.5 -37.5t-37.5 -15.5t-37.5 15.5t-15.5 37.5t15.5 37.5t37.5 15.5t37.5 -15.5t15.5 -37.5z" />
    <glyph glyph-name="Agrave" unicode="&#xc0;" horiz-adv-x="733" 
d="M-5 32l489 696h49l17 -696h114l-9 -32h-314l9 32h103l-4 248h-240l-175 -248h94l-9 -32h-207l9 32h74zM231 312h218l-5 300h-2zM396 876q-10 8 -16 16.5t-6 17.5q0 14 8.5 23t25.5 9q10 0 17.5 -4.5t16.5 -16.5l110 -149h-31z" />
    <glyph glyph-name="Aacute" unicode="&#xc1;" horiz-adv-x="733" 
d="M-5 32l489 696h49l17 -696h114l-9 -32h-314l9 32h103l-4 248h-240l-175 -248h94l-9 -32h-207l9 32h74zM231 312h218l-5 300h-2zM639 912q18 17 28 23.5t21 6.5q13 0 21.5 -8t8.5 -21q0 -11 -7.5 -21t-35.5 -27l-150 -93h-34z" />
    <glyph glyph-name="Acircumflex" unicode="&#xc2;" horiz-adv-x="733" 
d="M-5 32l489 696h49l17 -696h114l-9 -32h-314l9 32h103l-4 248h-240l-175 -248h94l-9 -32h-207l9 32h74zM231 312h218l-5 300h-2zM540 940h37l98 -168h-34l-91 106l-145 -106h-36z" />
    <glyph glyph-name="Atilde" unicode="&#xc3;" horiz-adv-x="733" 
d="M-5 32l489 696h49l17 -696h114l-9 -32h-314l9 32h103l-4 248h-240l-175 -248h94l-9 -32h-207l9 32h74zM231 312h218l-5 300h-2zM382 796q3 22 13 40.5t24.5 31.5t31 20t33.5 7t29.5 -4.5t28.5 -12.5l30 -16q29 -16 52 -16q17 0 29 14t21 38h33q-11 -42 -36.5 -72
t-67.5 -30q-17 0 -31 3.5t-31 12.5l-37 20q-14 8 -21 10.5t-18 2.5q-20 0 -31.5 -14t-17.5 -35h-34z" />
    <glyph glyph-name="Adieresis" unicode="&#xc4;" horiz-adv-x="733" 
d="M-5 32l489 696h49l17 -696h114l-9 -32h-314l9 32h103l-4 248h-240l-175 -248h94l-9 -32h-207l9 32h74zM231 312h218l-5 300h-2zM596 855q0 20 13.5 33.5t33.5 13.5t33.5 -13.5t13.5 -33.5t-13.5 -33.5t-33.5 -13.5t-33.5 13.5t-13.5 33.5zM412 855q0 20 13.5 33.5
t33.5 13.5t33.5 -13.5t13.5 -33.5t-13.5 -33.5t-33.5 -13.5t-33.5 13.5t-13.5 33.5z" />
    <glyph glyph-name="Aring" unicode="&#xc5;" horiz-adv-x="733" 
d="M-5 32l489 696h49l17 -696h114l-9 -32h-314l9 32h103l-4 248h-240l-175 -248h94l-9 -32h-207l9 32h74zM231 312h218l-5 300h-2zM651 894q0 -21 -10 -42t-26 -37.5t-36 -26.5t-40 -10q-31 0 -50.5 21t-19.5 51q0 20 10.5 40.5t27 36.5t37 26t40.5 10q28 0 47.5 -19.5
t19.5 -49.5zM613 896q0 41 -35 41q-14 0 -27 -9t-23 -22t-15.5 -28.5t-5.5 -27.5q0 -26 8 -36t25 -10q15 0 28 9t23 23t16 30t6 30z" />
    <glyph glyph-name="AE" unicode="&#xc6;" horiz-adv-x="1030" 
d="M-4 32l501 648h-104l10 32h592l-64 -181h-32q4 15 6.5 33.5t2.5 35.5q0 43 -20 61.5t-65 18.5h-188l-48 -282h75q40 0 72 26.5t57 83.5h32l-84 -280h-32q1 8 2 23.5t1 26.5q0 38 -19 63t-67 25h-42l-56 -334h150q62 0 114 43t104 139h32l-76 -214h-532l10 32h105l43 256
h-241l-198 -256h88l-10 -32h-224l11 32h94zM260 320h221l61 361h-3z" />
    <glyph glyph-name="Ccedilla" unicode="&#xc7;" horiz-adv-x="671" 
d="M656 519h-31q6 31 6 57q0 30 -12 52t-32.5 36.5t-48.5 21.5t-61 7q-38 0 -74 -16t-68 -44t-59.5 -66t-48.5 -81q-20 -43 -35.5 -87t-26 -85t-16 -77.5t-5.5 -65.5q0 -75 42 -114t126 -39q70 0 124 34.5t96 106.5l28 -14q-46 -81 -110.5 -120t-145.5 -39h-6l-60 -57l1 -1
q19 11 48 11q12 0 25 -4.5t23 -13.5t16.5 -23.5t6.5 -34.5q0 -25 -10 -46t-26.5 -36.5t-39 -24t-47.5 -8.5t-46.5 9t-34.5 22l21 26q28 -24 62 -24q33 0 49 25.5t16 57.5q0 21 -8.5 33t-28.5 12q-31 0 -54 -17l-19 27l71 70q-100 14 -152.5 88.5t-52.5 192.5q0 90 43 179.5
t125 162.5q57 49 123.5 81t130.5 32q34 0 59 -6t44 -13.5t35 -13.5t32 -6q27 0 42 29l32 -6z" />
    <glyph glyph-name="Egrave" unicode="&#xc8;" horiz-adv-x="710" 
d="M25 32l233 648h-114l10 32h579l-67 -188h-32q3 12 6.5 36t3.5 45q0 35 -16 55t-64 20h-208l-103 -282h95q24 0 45 10.5t38.5 28t31.5 40.5t25 48h32l-110 -310h-32q3 11 7.5 31t4.5 43q0 40 -22.5 58.5t-71.5 18.5h-54l-121 -334h232q55 0 106 43t103 139h32l-77 -214
h-606l10 32h104zM347 876q-10 8 -16 16.5t-6 17.5q0 14 8.5 23t25.5 9q10 0 17.5 -4.5t16.5 -16.5l110 -149h-31z" />
    <glyph glyph-name="Eacute" unicode="&#xc9;" horiz-adv-x="710" 
d="M25 32l233 648h-114l10 32h579l-67 -188h-32q3 12 6.5 36t3.5 45q0 35 -16 55t-64 20h-208l-103 -282h95q24 0 45 10.5t38.5 28t31.5 40.5t25 48h32l-110 -310h-32q3 11 7.5 31t4.5 43q0 40 -22.5 58.5t-71.5 18.5h-54l-121 -334h232q55 0 106 43t103 139h32l-77 -214
h-606l10 32h104zM590 912q18 17 28 23.5t21 6.5q13 0 21.5 -8t8.5 -21q0 -11 -7.5 -21t-35.5 -27l-150 -93h-34z" />
    <glyph glyph-name="Ecircumflex" unicode="&#xca;" horiz-adv-x="710" 
d="M25 32l233 648h-114l10 32h579l-67 -188h-32q3 12 6.5 36t3.5 45q0 35 -16 55t-64 20h-208l-103 -282h95q24 0 45 10.5t38.5 28t31.5 40.5t25 48h32l-110 -310h-32q3 11 7.5 31t4.5 43q0 40 -22.5 58.5t-71.5 18.5h-54l-121 -334h232q55 0 106 43t103 139h32l-77 -214
h-606l10 32h104zM491 940h37l98 -168h-34l-91 106l-145 -106h-36z" />
    <glyph glyph-name="Edieresis" unicode="&#xcb;" horiz-adv-x="710" 
d="M25 32l233 648h-114l10 32h579l-67 -188h-32q3 12 6.5 36t3.5 45q0 35 -16 55t-64 20h-208l-103 -282h95q24 0 45 10.5t38.5 28t31.5 40.5t25 48h32l-110 -310h-32q3 11 7.5 31t4.5 43q0 40 -22.5 58.5t-71.5 18.5h-54l-121 -334h232q55 0 106 43t103 139h32l-77 -214
h-606l10 32h104zM547 855q0 20 13.5 33.5t33.5 13.5t33.5 -13.5t13.5 -33.5t-13.5 -33.5t-33.5 -13.5t-33.5 13.5t-13.5 33.5zM363 855q0 20 13.5 33.5t33.5 13.5t33.5 -13.5t13.5 -33.5t-13.5 -33.5t-33.5 -13.5t-33.5 13.5t-13.5 33.5z" />
    <glyph glyph-name="Igrave" unicode="&#xcc;" horiz-adv-x="395" 
d="M-73 32h103l233 648h-114l10 32h316l-10 -32h-106l-232 -648h114l-10 -32h-314zM200 876q-10 8 -16 16.5t-6 17.5q0 14 8.5 23t25.5 9q10 0 17.5 -4.5t16.5 -16.5l110 -149h-31z" />
    <glyph glyph-name="Iacute" unicode="&#xcd;" horiz-adv-x="395" 
d="M-73 32h103l233 648h-114l10 32h316l-10 -32h-106l-232 -648h114l-10 -32h-314zM443 912q18 17 28 23.5t21 6.5q13 0 21.5 -8t8.5 -21q0 -11 -7.5 -21t-35.5 -27l-150 -93h-34z" />
    <glyph glyph-name="Icircumflex" unicode="&#xce;" horiz-adv-x="395" 
d="M-73 32h103l233 648h-114l10 32h316l-10 -32h-106l-232 -648h114l-10 -32h-314zM344 940h37l98 -168h-34l-91 106l-145 -106h-36z" />
    <glyph glyph-name="Idieresis" unicode="&#xcf;" horiz-adv-x="395" 
d="M-73 32h103l233 648h-114l10 32h316l-10 -32h-106l-232 -648h114l-10 -32h-314zM400 855q0 20 13.5 33.5t33.5 13.5t33.5 -13.5t13.5 -33.5t-13.5 -33.5t-33.5 -13.5t-33.5 13.5t-13.5 33.5zM216 855q0 20 13.5 33.5t33.5 13.5t33.5 -13.5t13.5 -33.5t-13.5 -33.5
t-33.5 -13.5t-33.5 13.5t-13.5 33.5z" />
    <glyph glyph-name="Eth" unicode="&#xd0;" horiz-adv-x="808" 
d="M154 375h-115l12 31h114l99 274h-115l10 32h308q67 0 119 -20t87.5 -56t54 -86.5t18.5 -111.5q0 -57 -19 -114t-53 -108.5t-82 -94.5t-106 -72q-55 -26 -109.5 -37.5t-124.5 -11.5h-335l10 32h104zM262 406h137l-12 -31h-136l-123 -343h134q78 0 151 37.5t136 118.5
q24 30 43 68.5t33 79.5t21.5 81.5t7.5 74.5q0 45 -10.5 80t-34 59t-61.5 36.5t-93 12.5h-95z" />
    <glyph glyph-name="Ntilde" unicode="&#xd1;" horiz-adv-x="736" 
d="M501 168l183 512h-114l9 32h252l-9 -32h-104l-252 -695h-13l-172 677h-2l-225 -630h113l-9 -32h-252l9 32h104l231 648h-112l9 32h215l137 -544h2zM343 796q3 22 13 40.5t24.5 31.5t31 20t33.5 7t29.5 -4.5t28.5 -12.5l30 -16q29 -16 52 -16q17 0 29 14t21 38h33
q-11 -42 -36.5 -72t-67.5 -30q-17 0 -31 3.5t-31 12.5l-37 20q-14 8 -21 10.5t-18 2.5q-20 0 -31.5 -14t-17.5 -35h-34z" />
    <glyph glyph-name="Ograve" unicode="&#xd2;" horiz-adv-x="790" 
d="M495 725q57 0 101.5 -22t75 -61t46 -92t15.5 -115q0 -56 -17 -111t-47.5 -104.5t-72 -92.5t-90 -74t-102.5 -49t-109 -18q-54 0 -97 19.5t-74 56.5t-47.5 90t-16.5 121q0 56 18 111.5t49 106t73 93.5t90.5 74t100.5 49t104 18zM491 693q-72 0 -137 -44t-110 -128
q-23 -42 -41.5 -89t-31.5 -93.5t-20 -91t-7 -80.5q0 -149 154 -149q76 0 142 45.5t114 136.5q21 39 38 84t28.5 90t18 87.5t6.5 77.5q0 154 -154 154zM386 876q-10 8 -16 16.5t-6 17.5q0 14 8.5 23t25.5 9q10 0 17.5 -4.5t16.5 -16.5l110 -149h-31z" />
    <glyph glyph-name="Oacute" unicode="&#xd3;" horiz-adv-x="790" 
d="M495 725q57 0 101.5 -22t75 -61t46 -92t15.5 -115q0 -56 -17 -111t-47.5 -104.5t-72 -92.5t-90 -74t-102.5 -49t-109 -18q-54 0 -97 19.5t-74 56.5t-47.5 90t-16.5 121q0 56 18 111.5t49 106t73 93.5t90.5 74t100.5 49t104 18zM491 693q-72 0 -137 -44t-110 -128
q-23 -42 -41.5 -89t-31.5 -93.5t-20 -91t-7 -80.5q0 -149 154 -149q76 0 142 45.5t114 136.5q21 39 38 84t28.5 90t18 87.5t6.5 77.5q0 154 -154 154zM629 912q18 17 28 23.5t21 6.5q13 0 21.5 -8t8.5 -21q0 -11 -7.5 -21t-35.5 -27l-150 -93h-34z" />
    <glyph glyph-name="Ocircumflex" unicode="&#xd4;" horiz-adv-x="790" 
d="M495 725q57 0 101.5 -22t75 -61t46 -92t15.5 -115q0 -56 -17 -111t-47.5 -104.5t-72 -92.5t-90 -74t-102.5 -49t-109 -18q-54 0 -97 19.5t-74 56.5t-47.5 90t-16.5 121q0 56 18 111.5t49 106t73 93.5t90.5 74t100.5 49t104 18zM491 693q-72 0 -137 -44t-110 -128
q-23 -42 -41.5 -89t-31.5 -93.5t-20 -91t-7 -80.5q0 -149 154 -149q76 0 142 45.5t114 136.5q21 39 38 84t28.5 90t18 87.5t6.5 77.5q0 154 -154 154zM530 940h37l98 -168h-34l-91 106l-145 -106h-36z" />
    <glyph glyph-name="Otilde" unicode="&#xd5;" horiz-adv-x="790" 
d="M495 725q57 0 101.5 -22t75 -61t46 -92t15.5 -115q0 -56 -17 -111t-47.5 -104.5t-72 -92.5t-90 -74t-102.5 -49t-109 -18q-54 0 -97 19.5t-74 56.5t-47.5 90t-16.5 121q0 56 18 111.5t49 106t73 93.5t90.5 74t100.5 49t104 18zM491 693q-72 0 -137 -44t-110 -128
q-23 -42 -41.5 -89t-31.5 -93.5t-20 -91t-7 -80.5q0 -149 154 -149q76 0 142 45.5t114 136.5q21 39 38 84t28.5 90t18 87.5t6.5 77.5q0 154 -154 154zM372 796q3 22 13 40.5t24.5 31.5t31 20t33.5 7t29.5 -4.5t28.5 -12.5l30 -16q29 -16 52 -16q17 0 29 14t21 38h33
q-11 -42 -36.5 -72t-67.5 -30q-17 0 -31 3.5t-31 12.5l-37 20q-14 8 -21 10.5t-18 2.5q-20 0 -31.5 -14t-17.5 -35h-34z" />
    <glyph glyph-name="Odieresis" unicode="&#xd6;" horiz-adv-x="790" 
d="M495 725q57 0 101.5 -22t75 -61t46 -92t15.5 -115q0 -56 -17 -111t-47.5 -104.5t-72 -92.5t-90 -74t-102.5 -49t-109 -18q-54 0 -97 19.5t-74 56.5t-47.5 90t-16.5 121q0 56 18 111.5t49 106t73 93.5t90.5 74t100.5 49t104 18zM491 693q-72 0 -137 -44t-110 -128
q-23 -42 -41.5 -89t-31.5 -93.5t-20 -91t-7 -80.5q0 -149 154 -149q76 0 142 45.5t114 136.5q21 39 38 84t28.5 90t18 87.5t6.5 77.5q0 154 -154 154zM586 855q0 20 13.5 33.5t33.5 13.5t33.5 -13.5t13.5 -33.5t-13.5 -33.5t-33.5 -13.5t-33.5 13.5t-13.5 33.5zM402 855
q0 20 13.5 33.5t33.5 13.5t33.5 -13.5t13.5 -33.5t-13.5 -33.5t-33.5 -13.5t-33.5 13.5t-13.5 33.5z" />
    <glyph glyph-name="multiply" unicode="&#xd7;" horiz-adv-x="593" 
d="M319 240l199 -198l-23 -23l-199 198l-199 -199l-22 23l198 199l-198 198l22 23l199 -198l199 199l22 -23z" />
    <glyph glyph-name="Oslash" unicode="&#xd8;" horiz-adv-x="790" 
d="M495 725q41 0 77 -12l40 69l28 -16l-38 -66q64 -34 97.5 -104t33.5 -161q0 -56 -17 -111t-47.5 -104.5t-72 -92.5t-90 -74t-102.5 -49t-109 -18q-26 0 -50 5t-45 13l-46 -79l-27 16l45 78q-54 33 -83 98t-29 156q0 56 18 111.5t49 106t73 93.5t90.5 74t100.5 49t104 18z
M645 539q0 93 -60 131l-369 -637q33 -15 82 -15q76 0 142 45.5t114 136.5q21 39 38 84t28.5 90t18 87.5t6.5 77.5zM491 693q-72 0 -137 -44t-110 -128q-23 -42 -41.5 -89t-31.5 -93.5t-20 -91t-7 -80.5q0 -81 45 -118l366 635q-27 9 -64 9z" />
    <glyph glyph-name="Ugrave" unicode="&#xd9;" horiz-adv-x="767" 
d="M137 680l10 32h315l-10 -32h-105l-143 -397q-8 -23 -13.5 -41.5t-9 -34.5t-5 -31t-1.5 -31q0 -58 37 -92.5t97 -34.5q96 0 161.5 58.5t103.5 182.5l130 421h-114l10 32h254l-10 -32h-104l-139 -446q-43 -129 -118 -188.5t-190 -59.5q-50 0 -89 13t-65.5 35.5t-40.5 54
t-14 68.5q0 16 1.5 32.5t6 37t12.5 45t20 56.5l127 352h-114zM398 876q-10 8 -16 16.5t-6 17.5q0 14 8.5 23t25.5 9q10 0 17.5 -4.5t16.5 -16.5l110 -149h-31z" />
    <glyph glyph-name="Uacute" unicode="&#xda;" horiz-adv-x="767" 
d="M137 680l10 32h315l-10 -32h-105l-143 -397q-8 -23 -13.5 -41.5t-9 -34.5t-5 -31t-1.5 -31q0 -58 37 -92.5t97 -34.5q96 0 161.5 58.5t103.5 182.5l130 421h-114l10 32h254l-10 -32h-104l-139 -446q-43 -129 -118 -188.5t-190 -59.5q-50 0 -89 13t-65.5 35.5t-40.5 54
t-14 68.5q0 16 1.5 32.5t6 37t12.5 45t20 56.5l127 352h-114zM641 912q18 17 28 23.5t21 6.5q13 0 21.5 -8t8.5 -21q0 -11 -7.5 -21t-35.5 -27l-150 -93h-34z" />
    <glyph glyph-name="Ucircumflex" unicode="&#xdb;" horiz-adv-x="767" 
d="M137 680l10 32h315l-10 -32h-105l-143 -397q-8 -23 -13.5 -41.5t-9 -34.5t-5 -31t-1.5 -31q0 -58 37 -92.5t97 -34.5q96 0 161.5 58.5t103.5 182.5l130 421h-114l10 32h254l-10 -32h-104l-139 -446q-43 -129 -118 -188.5t-190 -59.5q-50 0 -89 13t-65.5 35.5t-40.5 54
t-14 68.5q0 16 1.5 32.5t6 37t12.5 45t20 56.5l127 352h-114zM542 940h37l98 -168h-34l-91 106l-145 -106h-36z" />
    <glyph glyph-name="Udieresis" unicode="&#xdc;" horiz-adv-x="767" 
d="M137 680l10 32h315l-10 -32h-105l-143 -397q-8 -23 -13.5 -41.5t-9 -34.5t-5 -31t-1.5 -31q0 -58 37 -92.5t97 -34.5q96 0 161.5 58.5t103.5 182.5l130 421h-114l10 32h254l-10 -32h-104l-139 -446q-43 -129 -118 -188.5t-190 -59.5q-50 0 -89 13t-65.5 35.5t-40.5 54
t-14 68.5q0 16 1.5 32.5t6 37t12.5 45t20 56.5l127 352h-114zM598 855q0 20 13.5 33.5t33.5 13.5t33.5 -13.5t13.5 -33.5t-13.5 -33.5t-33.5 -13.5t-33.5 13.5t-13.5 33.5zM414 855q0 20 13.5 33.5t33.5 13.5t33.5 -13.5t13.5 -33.5t-13.5 -33.5t-33.5 -13.5t-33.5 13.5
t-13.5 33.5z" />
    <glyph glyph-name="Yacute" unicode="&#xdd;" horiz-adv-x="664" 
d="M361 302l-99 -270h115l-10 -32h-315l10 32h112l100 275l-71 373h-110l9 32h314l-9 -32h-111l63 -334l297 334h-88l9 32h206l-9 -32h-78zM601 912q18 17 28 23.5t21 6.5q13 0 21.5 -8t8.5 -21q0 -11 -7.5 -21t-35.5 -27l-150 -93h-34z" />
    <glyph glyph-name="Thorn" unicode="&#xde;" horiz-adv-x="641" 
d="M265 169q-23 0 -48.5 2t-41.5 6l-52 -145h114l-11 -32h-314l9 32h106l232 648h-114l9 32h316l-9 -32h-106l-32 -89h39q46 0 89.5 -12t77 -35.5t53.5 -57.5t20 -78q0 -54 -28 -98t-75 -75.5t-107.5 -48.5t-126.5 -17zM186 208q17 -4 37.5 -5.5t40.5 -1.5q51 0 94.5 19.5
t75.5 51.5t50 74.5t18 89.5q0 60 -40 91.5t-112 31.5h-39z" />
    <glyph glyph-name="germandbls" unicode="&#xdf;" horiz-adv-x="576" 
d="M156 485q17 57 43 107t62 87.5t82.5 59t103.5 21.5q63 0 98 -33t35 -85q0 -57 -29 -95t-92 -67q-43 -20 -57.5 -38.5t-14.5 -40.5q0 -11 4.5 -29t14.5 -36l57 -107q26 -49 26 -86q0 -32 -15 -60t-39.5 -49.5t-57.5 -34t-69 -12.5q-57 0 -90 29t-33 74q0 17 15 29t35 12
q15 0 24 -6t9 -17q0 -8 -2.5 -12.5t-6 -9t-6 -10t-2.5 -14.5q0 -43 63 -43q22 0 40.5 7t32.5 19t22 28.5t8 35.5q0 18 -5 37.5t-18 42.5l-56 104q-16 29 -21.5 47t-5.5 33q0 19 4.5 35.5t17.5 32t35 30.5t57 30q69 30 96 61.5t27 78.5q0 36 -25 60.5t-67 24.5
q-66 0 -122 -53t-87 -155l-149 -490q-20 -66 -53 -118.5t-71.5 -89.5t-79 -56.5t-74.5 -19.5q-38 0 -62.5 24t-24.5 63q0 46 49 46q17 0 25 -7.5t8 -19.5q0 -14 -5 -23.5t-5 -24.5q0 -11 7 -18.5t21 -7.5q48 0 97.5 57t84.5 174z" />
    <glyph glyph-name="agrave" unicode="&#xe0;" horiz-adv-x="595" 
d="M528 457l-109 -303q-12 -33 -18.5 -58.5t-6.5 -42.5q0 -12 7.5 -19t19.5 -7q24 0 47.5 19t43.5 58l28 -14q-55 -103 -147 -103q-37 0 -57.5 15t-20.5 45q0 9 2 23.5t5 23.5h-2q-52 -60 -97.5 -83.5t-90.5 -23.5q-57 0 -89.5 38.5t-32.5 101.5q0 42 17 83.5t45 80t64 71
t73 57t73 38t65 13.5q32 0 55 -16.5t27 -45.5h2l17 49h80zM403 329q5 14 7 24.5t2 19.5q0 29 -19 47t-51 18q-34 0 -65.5 -17.5t-59.5 -45.5t-51 -64t-40 -73t-26 -72t-9 -61q0 -42 15 -64t48 -22q23 0 52 13.5t57 36t51.5 52.5t35.5 64zM254 656q-10 8 -16 16.5t-6 17.5
q0 14 8.5 23t25.5 9q10 0 17.5 -4.5t16.5 -16.5l110 -149h-31z" />
    <glyph glyph-name="aacute" unicode="&#xe1;" horiz-adv-x="595" 
d="M528 457l-109 -303q-12 -33 -18.5 -58.5t-6.5 -42.5q0 -12 7.5 -19t19.5 -7q24 0 47.5 19t43.5 58l28 -14q-55 -103 -147 -103q-37 0 -57.5 15t-20.5 45q0 9 2 23.5t5 23.5h-2q-52 -60 -97.5 -83.5t-90.5 -23.5q-57 0 -89.5 38.5t-32.5 101.5q0 42 17 83.5t45 80t64 71
t73 57t73 38t65 13.5q32 0 55 -16.5t27 -45.5h2l17 49h80zM403 329q5 14 7 24.5t2 19.5q0 29 -19 47t-51 18q-34 0 -65.5 -17.5t-59.5 -45.5t-51 -64t-40 -73t-26 -72t-9 -61q0 -42 15 -64t48 -22q23 0 52 13.5t57 36t51.5 52.5t35.5 64zM496 692q18 17 28 23.5t21 6.5
q13 0 21.5 -8t8.5 -21q0 -11 -7.5 -21t-35.5 -27l-150 -93h-34z" />
    <glyph glyph-name="acircumflex" unicode="&#xe2;" horiz-adv-x="595" 
d="M528 457l-109 -303q-12 -33 -18.5 -58.5t-6.5 -42.5q0 -12 7.5 -19t19.5 -7q24 0 47.5 19t43.5 58l28 -14q-55 -103 -147 -103q-37 0 -57.5 15t-20.5 45q0 9 2 23.5t5 23.5h-2q-52 -60 -97.5 -83.5t-90.5 -23.5q-57 0 -89.5 38.5t-32.5 101.5q0 42 17 83.5t45 80t64 71
t73 57t73 38t65 13.5q32 0 55 -16.5t27 -45.5h2l17 49h80zM403 329q5 14 7 24.5t2 19.5q0 29 -19 47t-51 18q-34 0 -65.5 -17.5t-59.5 -45.5t-51 -64t-40 -73t-26 -72t-9 -61q0 -42 15 -64t48 -22q23 0 52 13.5t57 36t51.5 52.5t35.5 64zM398 720h37l98 -168h-34l-91 106
l-145 -106h-36z" />
    <glyph glyph-name="atilde" unicode="&#xe3;" horiz-adv-x="595" 
d="M528 457l-109 -303q-12 -33 -18.5 -58.5t-6.5 -42.5q0 -12 7.5 -19t19.5 -7q24 0 47.5 19t43.5 58l28 -14q-55 -103 -147 -103q-37 0 -57.5 15t-20.5 45q0 9 2 23.5t5 23.5h-2q-52 -60 -97.5 -83.5t-90.5 -23.5q-57 0 -89.5 38.5t-32.5 101.5q0 42 17 83.5t45 80t64 71
t73 57t73 38t65 13.5q32 0 55 -16.5t27 -45.5h2l17 49h80zM403 329q5 14 7 24.5t2 19.5q0 29 -19 47t-51 18q-34 0 -65.5 -17.5t-59.5 -45.5t-51 -64t-40 -73t-26 -72t-9 -61q0 -42 15 -64t48 -22q23 0 52 13.5t57 36t51.5 52.5t35.5 64zM246 576q3 22 13 40.5t24.5 31.5
t31 20t33.5 7t29.5 -4.5t28.5 -12.5l30 -16q29 -16 52 -16q17 0 29 14t21 38h33q-11 -42 -36.5 -72t-67.5 -30q-17 0 -31 3.5t-31 12.5l-37 20q-14 8 -21 10.5t-18 2.5q-20 0 -31.5 -14t-17.5 -35h-34z" />
    <glyph glyph-name="adieresis" unicode="&#xe4;" horiz-adv-x="595" 
d="M528 457l-109 -303q-12 -33 -18.5 -58.5t-6.5 -42.5q0 -12 7.5 -19t19.5 -7q24 0 47.5 19t43.5 58l28 -14q-55 -103 -147 -103q-37 0 -57.5 15t-20.5 45q0 9 2 23.5t5 23.5h-2q-52 -60 -97.5 -83.5t-90.5 -23.5q-57 0 -89.5 38.5t-32.5 101.5q0 42 17 83.5t45 80t64 71
t73 57t73 38t65 13.5q32 0 55 -16.5t27 -45.5h2l17 49h80zM403 329q5 14 7 24.5t2 19.5q0 29 -19 47t-51 18q-34 0 -65.5 -17.5t-59.5 -45.5t-51 -64t-40 -73t-26 -72t-9 -61q0 -42 15 -64t48 -22q23 0 52 13.5t57 36t51.5 52.5t35.5 64zM452 635q0 20 13.5 33.5t33.5 13.5
t33.5 -13.5t13.5 -33.5t-13.5 -33.5t-33.5 -13.5t-33.5 13.5t-13.5 33.5zM268 635q0 20 13.5 33.5t33.5 13.5t33.5 -13.5t13.5 -33.5t-13.5 -33.5t-33.5 -13.5t-33.5 13.5t-13.5 33.5z" />
    <glyph glyph-name="aring" unicode="&#xe5;" horiz-adv-x="595" 
d="M528 457l-109 -303q-12 -33 -18.5 -58.5t-6.5 -42.5q0 -12 7.5 -19t19.5 -7q24 0 47.5 19t43.5 58l28 -14q-55 -103 -147 -103q-37 0 -57.5 15t-20.5 45q0 9 2 23.5t5 23.5h-2q-52 -60 -97.5 -83.5t-90.5 -23.5q-57 0 -89.5 38.5t-32.5 101.5q0 42 17 83.5t45 80t64 71
t73 57t73 38t65 13.5q32 0 55 -16.5t27 -45.5h2l17 49h80zM403 329q5 14 7 24.5t2 19.5q0 29 -19 47t-51 18q-34 0 -65.5 -17.5t-59.5 -45.5t-51 -64t-40 -73t-26 -72t-9 -61q0 -42 15 -64t48 -22q23 0 52 13.5t57 36t51.5 52.5t35.5 64zM507 674q0 -21 -10 -42t-26 -37.5
t-36 -26.5t-40 -10q-31 0 -50.5 21t-19.5 51q0 20 10.5 40.5t27 36.5t37 26t40.5 10q28 0 47.5 -19.5t19.5 -49.5zM469 676q0 41 -35 41q-14 0 -27 -9t-23 -22t-15.5 -28.5t-5.5 -27.5q0 -26 8 -36t25 -10q15 0 28 9t23 23t16 30t6 30z" />
    <glyph glyph-name="ae" unicode="&#xe6;" horiz-adv-x="817" 
d="M528 457l-19 -52l2 -1q32 30 67 48t69 18q57 0 90.5 -25.5t33.5 -67.5q0 -34 -23 -61t-60 -46t-84 -29.5t-95 -10.5q-17 0 -31.5 1.5t-28.5 3.5q-11 -32 -16 -59.5t-5 -52.5q0 -49 25.5 -77.5t73.5 -28.5q45 0 81 24t73 76l28 -16q-43 -61 -89 -87.5t-106 -26.5
q-69 0 -113.5 37t-51.5 94h-2q-52 -73 -108 -102t-107 -29q-57 0 -89.5 38.5t-32.5 101.5q0 42 17 83.5t45 80t64 71t73 57t73 38t65 13.5q32 0 55 -16.5t27 -45.5h2l17 49h80zM403 329q5 14 7 24.5t2 19.5q0 29 -19 47t-51 18q-34 0 -65.5 -17.5t-59.5 -45.5t-51 -64
t-40 -73t-26 -72t-9 -61q0 -42 15 -64t48 -22q23 0 52 13.5t57 36t51.5 52.5t35.5 64zM647 438q-28 0 -55 -13t-51.5 -36t-45 -54.5t-35.5 -68.5q10 -2 23 -3t30 -1q37 0 71 10.5t59.5 28t40.5 40.5t15 49q0 23 -14 35.5t-38 12.5z" />
    <glyph glyph-name="ccedilla" unicode="&#xe7;" horiz-adv-x="478" 
d="M387 101q-77 -107 -185 -113l-61 -59l1 -1q19 11 48 11q12 0 25 -4.5t23 -13.5t16.5 -23.5t6.5 -34.5q0 -25 -10 -46t-26.5 -36.5t-39 -24t-47.5 -8.5t-46.5 9t-34.5 22l21 26q28 -24 62 -24q33 0 49 25.5t16 57.5q0 21 -8.5 33t-28.5 12q-31 0 -54 -17l-19 27l70 69
q-66 8 -104.5 52.5t-38.5 111.5q0 51 25.5 107.5t68 103t97.5 77t115 30.5t89 -27t29 -72q0 -38 -17 -54t-46 -16q-14 0 -22 9t-8 23q0 12 4 19t9.5 13t9.5 13.5t4 19.5q0 19 -12.5 29.5t-46.5 10.5q-48 0 -88 -32.5t-69 -81t-45 -105t-16 -103.5q0 -45 26.5 -71t74.5 -26
q40 0 81.5 24.5t73.5 72.5z" />
    <glyph glyph-name="egrave" unicode="&#xe8;" horiz-adv-x="483" 
d="M175 230q-17 0 -31.5 1.5t-28.5 3.5q-11 -32 -16 -59.5t-5 -52.5q0 -49 25.5 -77.5t73.5 -28.5q45 0 81 24t73 76l28 -16q-43 -61 -89 -87.5t-106 -26.5q-38 0 -68.5 11.5t-52 31.5t-33.5 48t-12 60q0 58 27 117t69.5 107t96 78t106.5 30q57 0 90.5 -25.5t33.5 -67.5
q0 -34 -23 -61t-60 -46t-84 -29.5t-95 -10.5zM313 438q-28 0 -55 -13t-51.5 -36t-45 -54.5t-35.5 -68.5q10 -2 23 -3t30 -1q37 0 71 10.5t59.5 28t40.5 40.5t15 49q0 23 -14 35.5t-38 12.5zM212 656q-10 8 -16 16.5t-6 17.5q0 14 8.5 23t25.5 9q10 0 17.5 -4.5t16.5 -16.5
l110 -149h-31z" />
    <glyph glyph-name="eacute" unicode="&#xe9;" horiz-adv-x="483" 
d="M175 230q-17 0 -31.5 1.5t-28.5 3.5q-11 -32 -16 -59.5t-5 -52.5q0 -49 25.5 -77.5t73.5 -28.5q45 0 81 24t73 76l28 -16q-43 -61 -89 -87.5t-106 -26.5q-38 0 -68.5 11.5t-52 31.5t-33.5 48t-12 60q0 58 27 117t69.5 107t96 78t106.5 30q57 0 90.5 -25.5t33.5 -67.5
q0 -34 -23 -61t-60 -46t-84 -29.5t-95 -10.5zM313 438q-28 0 -55 -13t-51.5 -36t-45 -54.5t-35.5 -68.5q10 -2 23 -3t30 -1q37 0 71 10.5t59.5 28t40.5 40.5t15 49q0 23 -14 35.5t-38 12.5zM454 692q18 17 28 23.5t21 6.5q13 0 21.5 -8t8.5 -21q0 -11 -7.5 -21t-35.5 -27
l-150 -93h-34z" />
    <glyph glyph-name="ecircumflex" unicode="&#xea;" horiz-adv-x="483" 
d="M175 230q-17 0 -31.5 1.5t-28.5 3.5q-11 -32 -16 -59.5t-5 -52.5q0 -49 25.5 -77.5t73.5 -28.5q45 0 81 24t73 76l28 -16q-43 -61 -89 -87.5t-106 -26.5q-38 0 -68.5 11.5t-52 31.5t-33.5 48t-12 60q0 58 27 117t69.5 107t96 78t106.5 30q57 0 90.5 -25.5t33.5 -67.5
q0 -34 -23 -61t-60 -46t-84 -29.5t-95 -10.5zM313 438q-28 0 -55 -13t-51.5 -36t-45 -54.5t-35.5 -68.5q10 -2 23 -3t30 -1q37 0 71 10.5t59.5 28t40.5 40.5t15 49q0 23 -14 35.5t-38 12.5zM356 720h37l98 -168h-34l-91 106l-145 -106h-36z" />
    <glyph glyph-name="edieresis" unicode="&#xeb;" horiz-adv-x="483" 
d="M175 230q-17 0 -31.5 1.5t-28.5 3.5q-11 -32 -16 -59.5t-5 -52.5q0 -49 25.5 -77.5t73.5 -28.5q45 0 81 24t73 76l28 -16q-43 -61 -89 -87.5t-106 -26.5q-38 0 -68.5 11.5t-52 31.5t-33.5 48t-12 60q0 58 27 117t69.5 107t96 78t106.5 30q57 0 90.5 -25.5t33.5 -67.5
q0 -34 -23 -61t-60 -46t-84 -29.5t-95 -10.5zM313 438q-28 0 -55 -13t-51.5 -36t-45 -54.5t-35.5 -68.5q10 -2 23 -3t30 -1q37 0 71 10.5t59.5 28t40.5 40.5t15 49q0 23 -14 35.5t-38 12.5zM410 635q0 20 13.5 33.5t33.5 13.5t33.5 -13.5t13.5 -33.5t-13.5 -33.5
t-33.5 -13.5t-33.5 13.5t-13.5 33.5zM226 635q0 20 13.5 33.5t33.5 13.5t33.5 -13.5t13.5 -33.5t-13.5 -33.5t-33.5 -13.5t-33.5 13.5t-13.5 33.5z" />
    <glyph glyph-name="igrave" unicode="&#xec;" horiz-adv-x="307" 
d="M117 108q-8 -23 -11.5 -36.5t-3.5 -24.5q0 -13 8 -20.5t21 -7.5q24 0 49.5 22.5t42.5 57.5l30 -11q-28 -52 -62.5 -76.5t-79.5 -24.5q-85 0 -85 65q0 30 16 71l106 302h-88l9 32h169zM91 656q-10 8 -16 16.5t-6 17.5q0 14 8.5 23t25.5 9q10 0 17.5 -4.5t16.5 -16.5
l110 -149h-31z" />
    <glyph glyph-name="iacute" unicode="&#xed;" horiz-adv-x="307" 
d="M117 108q-8 -23 -11.5 -36.5t-3.5 -24.5q0 -13 8 -20.5t21 -7.5q24 0 49.5 22.5t42.5 57.5l30 -11q-28 -52 -62.5 -76.5t-79.5 -24.5q-85 0 -85 65q0 30 16 71l106 302h-88l9 32h169zM333 692q18 17 28 23.5t21 6.5q13 0 21.5 -8t8.5 -21q0 -11 -7.5 -21t-35.5 -27
l-150 -93h-34z" />
    <glyph glyph-name="icircumflex" unicode="&#xee;" horiz-adv-x="307" 
d="M117 108q-8 -23 -11.5 -36.5t-3.5 -24.5q0 -13 8 -20.5t21 -7.5q24 0 49.5 22.5t42.5 57.5l30 -11q-28 -52 -62.5 -76.5t-79.5 -24.5q-85 0 -85 65q0 30 16 71l106 302h-88l9 32h169zM235 720h37l98 -168h-34l-91 106l-145 -106h-36z" />
    <glyph glyph-name="idieresis" unicode="&#xef;" horiz-adv-x="307" 
d="M117 108q-8 -23 -11.5 -36.5t-3.5 -24.5q0 -13 8 -20.5t21 -7.5q24 0 49.5 22.5t42.5 57.5l30 -11q-28 -52 -62.5 -76.5t-79.5 -24.5q-85 0 -85 65q0 30 16 71l106 302h-88l9 32h169zM289 635q0 20 13.5 33.5t33.5 13.5t33.5 -13.5t13.5 -33.5t-13.5 -33.5t-33.5 -13.5
t-33.5 13.5t-13.5 33.5zM105 635q0 20 13.5 33.5t33.5 13.5t33.5 -13.5t13.5 -33.5t-13.5 -33.5t-33.5 -13.5t-33.5 13.5t-13.5 33.5z" />
    <glyph glyph-name="eth" unicode="&#xf0;" horiz-adv-x="539" 
d="M367 605q42 -61 68 -135.5t26 -159.5q0 -72 -25.5 -131.5t-66.5 -102t-92 -66t-102 -23.5q-35 0 -65.5 13.5t-52.5 38t-34.5 58t-12.5 72.5q0 60 25.5 115t66.5 96t91.5 65.5t100.5 24.5q26 0 47.5 -11t32.5 -32l2 2q-5 39 -18.5 80.5t-36.5 83.5l-134 -36l-10 33l125 33
q-20 29 -43 54.5t-49 46.5l23 23q29 -22 58 -50t55 -62l127 34l10 -33zM291 438q-32 0 -60 -17.5t-50.5 -45.5t-40 -63t-30 -71.5t-18.5 -70.5t-6 -59q0 -45 23 -68.5t63 -23.5q31 0 59 15.5t51 41.5t41.5 59t31.5 67t19.5 67t6.5 59q0 52 -22.5 81t-67.5 29z" />
    <glyph glyph-name="ntilde" unicode="&#xf1;" horiz-adv-x="620" 
d="M156 425h-89l9 32h169l-42 -124h2q37 55 88.5 92.5t114.5 37.5q45 0 73 -24.5t28 -59.5q0 -9 -1 -16t-3 -16t-6.5 -21.5t-11.5 -31.5l-65 -177q-9 -25 -12.5 -40t-3.5 -27q0 -31 26 -31q46 0 89 82l29 -12q-28 -54 -62.5 -78t-82.5 -24q-37 0 -59.5 16.5t-22.5 46.5
q0 12 3 25.5t11 34.5l83 228q10 26 10 47t-12.5 33.5t-35.5 12.5q-24 0 -55.5 -17.5t-62.5 -48.5t-58.5 -72t-43.5 -87l-74 -206h-80zM212 576q3 22 13 40.5t24.5 31.5t31 20t33.5 7t29.5 -4.5t28.5 -12.5l30 -16q29 -16 52 -16q17 0 29 14t21 38h33q-11 -42 -36.5 -72
t-67.5 -30q-17 0 -31 3.5t-31 12.5l-37 20q-14 8 -21 10.5t-18 2.5q-20 0 -31.5 -14t-17.5 -35h-34z" />
    <glyph glyph-name="ograve" unicode="&#xf2;" horiz-adv-x="551" 
d="M305 470q40 0 71 -16t52.5 -42t33 -58.5t11.5 -64.5q0 -59 -26.5 -113.5t-68 -96.5t-93 -67t-101.5 -25q-36 0 -67.5 14t-55 39t-36.5 58.5t-13 72.5q0 60 26.5 114t68.5 95.5t94 65.5t104 24zM291 438q-42 0 -78.5 -31t-63 -77t-41.5 -98.5t-15 -94.5q0 -55 25 -86.5
t70 -31.5q43 0 80.5 32t65 78.5t43 100t15.5 95.5q0 54 -25 83.5t-76 29.5zM198 656q-10 8 -16 16.5t-6 17.5q0 14 8.5 23t25.5 9q10 0 17.5 -4.5t16.5 -16.5l110 -149h-31z" />
    <glyph glyph-name="oacute" unicode="&#xf3;" horiz-adv-x="551" 
d="M305 470q40 0 71 -16t52.5 -42t33 -58.5t11.5 -64.5q0 -59 -26.5 -113.5t-68 -96.5t-93 -67t-101.5 -25q-36 0 -67.5 14t-55 39t-36.5 58.5t-13 72.5q0 60 26.5 114t68.5 95.5t94 65.5t104 24zM291 438q-42 0 -78.5 -31t-63 -77t-41.5 -98.5t-15 -94.5q0 -55 25 -86.5
t70 -31.5q43 0 80.5 32t65 78.5t43 100t15.5 95.5q0 54 -25 83.5t-76 29.5zM440 692q18 17 28 23.5t21 6.5q13 0 21.5 -8t8.5 -21q0 -11 -7.5 -21t-35.5 -27l-150 -93h-34z" />
    <glyph glyph-name="ocircumflex" unicode="&#xf4;" horiz-adv-x="551" 
d="M305 470q40 0 71 -16t52.5 -42t33 -58.5t11.5 -64.5q0 -59 -26.5 -113.5t-68 -96.5t-93 -67t-101.5 -25q-36 0 -67.5 14t-55 39t-36.5 58.5t-13 72.5q0 60 26.5 114t68.5 95.5t94 65.5t104 24zM291 438q-42 0 -78.5 -31t-63 -77t-41.5 -98.5t-15 -94.5q0 -55 25 -86.5
t70 -31.5q43 0 80.5 32t65 78.5t43 100t15.5 95.5q0 54 -25 83.5t-76 29.5zM342 720h37l98 -168h-34l-91 106l-145 -106h-36z" />
    <glyph glyph-name="otilde" unicode="&#xf5;" horiz-adv-x="551" 
d="M305 470q40 0 71 -16t52.5 -42t33 -58.5t11.5 -64.5q0 -59 -26.5 -113.5t-68 -96.5t-93 -67t-101.5 -25q-36 0 -67.5 14t-55 39t-36.5 58.5t-13 72.5q0 60 26.5 114t68.5 95.5t94 65.5t104 24zM291 438q-42 0 -78.5 -31t-63 -77t-41.5 -98.5t-15 -94.5q0 -55 25 -86.5
t70 -31.5q43 0 80.5 32t65 78.5t43 100t15.5 95.5q0 54 -25 83.5t-76 29.5zM190 576q3 22 13 40.5t24.5 31.5t31 20t33.5 7t29.5 -4.5t28.5 -12.5l30 -16q29 -16 52 -16q17 0 29 14t21 38h33q-11 -42 -36.5 -72t-67.5 -30q-17 0 -31 3.5t-31 12.5l-37 20q-14 8 -21 10.5
t-18 2.5q-20 0 -31.5 -14t-17.5 -35h-34z" />
    <glyph glyph-name="odieresis" unicode="&#xf6;" horiz-adv-x="551" 
d="M305 470q40 0 71 -16t52.5 -42t33 -58.5t11.5 -64.5q0 -59 -26.5 -113.5t-68 -96.5t-93 -67t-101.5 -25q-36 0 -67.5 14t-55 39t-36.5 58.5t-13 72.5q0 60 26.5 114t68.5 95.5t94 65.5t104 24zM291 438q-42 0 -78.5 -31t-63 -77t-41.5 -98.5t-15 -94.5q0 -55 25 -86.5
t70 -31.5q43 0 80.5 32t65 78.5t43 100t15.5 95.5q0 54 -25 83.5t-76 29.5zM396 635q0 20 13.5 33.5t33.5 13.5t33.5 -13.5t13.5 -33.5t-13.5 -33.5t-33.5 -13.5t-33.5 13.5t-13.5 33.5zM212 635q0 20 13.5 33.5t33.5 13.5t33.5 -13.5t13.5 -33.5t-13.5 -33.5t-33.5 -13.5
t-33.5 13.5t-13.5 33.5z" />
    <glyph glyph-name="divide" unicode="&#xf7;" horiz-adv-x="593" 
d="M296 124q17 0 29.5 -12.5t12.5 -29.5q0 -18 -12.5 -30.5t-29.5 -12.5q-18 0 -30.5 12.5t-12.5 30.5q0 17 12.5 29.5t30.5 12.5zM296 441q17 0 29.5 -12.5t12.5 -29.5q0 -18 -12.5 -30.5t-29.5 -12.5q-18 0 -30.5 12.5t-12.5 30.5q0 17 12.5 29.5t30.5 12.5zM57 224v32
h479v-32h-479z" />
    <glyph glyph-name="oslash" unicode="&#xf8;" horiz-adv-x="551" 
d="M305 470q23 0 43 -6l34 58l29 -15l-32 -55q22 -12 39.5 -30t29.5 -40t18.5 -45.5t6.5 -47.5q0 -59 -26.5 -113.5t-68 -96.5t-93 -67t-101.5 -25q-35 0 -69 14l-45 -77l-29 14l46 79q-35 25 -55 64t-20 90q0 60 26.5 114t68.5 95.5t94 65.5t104 24zM392 325q0 60 -34 91
l-223 -382q21 -15 53 -15q43 0 80.5 32t65 78.5t43 100t15.5 95.5zM291 438q-42 0 -78.5 -31t-63 -77t-41.5 -98.5t-15 -94.5q0 -50 19 -78l217 373q-17 6 -38 6z" />
    <glyph glyph-name="ugrave" unicode="&#xf9;" horiz-adv-x="589" 
d="M119 119q-8 -24 -11.5 -39t-3.5 -26q0 -16 10.5 -25.5t30.5 -9.5q27 0 60 20.5t65 54t59 75.5t42 85l70 203h80l-122 -349q-9 -26 -12 -38.5t-3 -21.5q0 -29 28 -29q26 0 50.5 22.5t42.5 57.5l30 -11q-30 -54 -66.5 -77.5t-81.5 -23.5q-38 0 -59.5 15t-21.5 45
q0 27 14 66l-2 2q-98 -128 -196 -128q-45 0 -70.5 20.5t-25.5 57.5q0 12 3 26.5t12 40.5l104 293h-88l9 32h171zM225 656q-10 8 -16 16.5t-6 17.5q0 14 8.5 23t25.5 9q10 0 17.5 -4.5t16.5 -16.5l110 -149h-31z" />
    <glyph glyph-name="uacute" unicode="&#xfa;" horiz-adv-x="589" 
d="M119 119q-8 -24 -11.5 -39t-3.5 -26q0 -16 10.5 -25.5t30.5 -9.5q27 0 60 20.5t65 54t59 75.5t42 85l70 203h80l-122 -349q-9 -26 -12 -38.5t-3 -21.5q0 -29 28 -29q26 0 50.5 22.5t42.5 57.5l30 -11q-30 -54 -66.5 -77.5t-81.5 -23.5q-38 0 -59.5 15t-21.5 45
q0 27 14 66l-2 2q-98 -128 -196 -128q-45 0 -70.5 20.5t-25.5 57.5q0 12 3 26.5t12 40.5l104 293h-88l9 32h171zM467 692q18 17 28 23.5t21 6.5q13 0 21.5 -8t8.5 -21q0 -11 -7.5 -21t-35.5 -27l-150 -93h-34z" />
    <glyph glyph-name="ucircumflex" unicode="&#xfb;" horiz-adv-x="589" 
d="M119 119q-8 -24 -11.5 -39t-3.5 -26q0 -16 10.5 -25.5t30.5 -9.5q27 0 60 20.5t65 54t59 75.5t42 85l70 203h80l-122 -349q-9 -26 -12 -38.5t-3 -21.5q0 -29 28 -29q26 0 50.5 22.5t42.5 57.5l30 -11q-30 -54 -66.5 -77.5t-81.5 -23.5q-38 0 -59.5 15t-21.5 45
q0 27 14 66l-2 2q-98 -128 -196 -128q-45 0 -70.5 20.5t-25.5 57.5q0 12 3 26.5t12 40.5l104 293h-88l9 32h171zM369 720h37l98 -168h-34l-91 106l-145 -106h-36z" />
    <glyph glyph-name="udieresis" unicode="&#xfc;" horiz-adv-x="589" 
d="M119 119q-8 -24 -11.5 -39t-3.5 -26q0 -16 10.5 -25.5t30.5 -9.5q27 0 60 20.5t65 54t59 75.5t42 85l70 203h80l-122 -349q-9 -26 -12 -38.5t-3 -21.5q0 -29 28 -29q26 0 50.5 22.5t42.5 57.5l30 -11q-30 -54 -66.5 -77.5t-81.5 -23.5q-38 0 -59.5 15t-21.5 45
q0 27 14 66l-2 2q-98 -128 -196 -128q-45 0 -70.5 20.5t-25.5 57.5q0 12 3 26.5t12 40.5l104 293h-88l9 32h171zM423 635q0 20 13.5 33.5t33.5 13.5t33.5 -13.5t13.5 -33.5t-13.5 -33.5t-33.5 -13.5t-33.5 13.5t-13.5 33.5zM239 635q0 20 13.5 33.5t33.5 13.5t33.5 -13.5
t13.5 -33.5t-13.5 -33.5t-33.5 -13.5t-33.5 13.5t-13.5 33.5z" />
    <glyph glyph-name="yacute" unicode="&#xfd;" horiz-adv-x="500" 
d="M7 342q14 57 45.5 92.5t93.5 35.5q30 0 50 -12t32 -33t17 -50.5t5 -64.5q0 -60 -6 -112t-17 -101h2l111 200q27 48 48.5 81t40.5 53.5t37.5 29.5t40.5 9q21 0 33 -10t12 -27q0 -16 -9 -26.5t-23 -10.5q-6 0 -12 3t-14 3q-18 0 -34.5 -10t-35.5 -32.5t-42.5 -60
t-54.5 -92.5q-42 -73 -81 -143.5t-79 -145.5q-20 -39 -42 -72t-46.5 -58t-51.5 -39t-58 -14q-45 0 -69 25t-24 65q0 52 57 52q16 0 23 -8.5t7 -21.5q0 -16 -5 -26t-5 -27q0 -11 9.5 -18.5t25.5 -7.5q28 0 59.5 36.5t57.5 96.5t43 136.5t17 157.5q0 75 -4 120.5t-11 70.5
t-16.5 33t-21.5 8q-25 0 -43.5 -24.5t-30.5 -69.5zM442 692q18 17 28 23.5t21 6.5q13 0 21.5 -8t8.5 -21q0 -11 -7.5 -21t-35.5 -27l-150 -93h-34z" />
    <glyph glyph-name="thorn" unicode="&#xfe;" horiz-adv-x="597" 
d="M245 689h-91l9 32h173l-123 -331h2q26 38 61.5 59t77.5 21q36 0 65 -13.5t49.5 -38t32 -59t11.5 -76.5q0 -51 -23.5 -104t-62.5 -95.5t-90 -69.5t-106 -27q-48 0 -81 23.5t-41 66.5h-2l-114 -324h85l-9 -32h-239l9 32h74zM125 130q11 -57 38 -84t69 -27q38 0 74 30.5
t63.5 76t44 98.5t16.5 98q0 60 -23.5 88t-61.5 28t-72.5 -24.5t-76.5 -84.5z" />
    <glyph glyph-name="ydieresis" unicode="&#xff;" horiz-adv-x="500" 
d="M7 342q14 57 45.5 92.5t93.5 35.5q30 0 50 -12t32 -33t17 -50.5t5 -64.5q0 -60 -6 -112t-17 -101h2l111 200q27 48 48.5 81t40.5 53.5t37.5 29.5t40.5 9q21 0 33 -10t12 -27q0 -16 -9 -26.5t-23 -10.5q-6 0 -12 3t-14 3q-18 0 -34.5 -10t-35.5 -32.5t-42.5 -60
t-54.5 -92.5q-42 -73 -81 -143.5t-79 -145.5q-20 -39 -42 -72t-46.5 -58t-51.5 -39t-58 -14q-45 0 -69 25t-24 65q0 52 57 52q16 0 23 -8.5t7 -21.5q0 -16 -5 -26t-5 -27q0 -11 9.5 -18.5t25.5 -7.5q28 0 59.5 36.5t57.5 96.5t43 136.5t17 157.5q0 75 -4 120.5t-11 70.5
t-16.5 33t-21.5 8q-25 0 -43.5 -24.5t-30.5 -69.5zM398 635q0 20 13.5 33.5t33.5 13.5t33.5 -13.5t13.5 -33.5t-13.5 -33.5t-33.5 -13.5t-33.5 13.5t-13.5 33.5zM214 635q0 20 13.5 33.5t33.5 13.5t33.5 -13.5t13.5 -33.5t-13.5 -33.5t-33.5 -13.5t-33.5 13.5t-13.5 33.5z
" />
    <glyph glyph-name="dotlessi" unicode="&#x131;" horiz-adv-x="307" 
d="M117 108q-8 -23 -11.5 -36.5t-3.5 -24.5q0 -13 8 -20.5t21 -7.5q24 0 49.5 22.5t42.5 57.5l30 -11q-28 -52 -62.5 -76.5t-79.5 -24.5q-85 0 -85 65q0 30 16 71l106 302h-88l9 32h169z" />
    <glyph glyph-name="OE" unicode="&#x152;" horiz-adv-x="1077" 
d="M445 0q-15 0 -34.5 -1t-40.5 -2t-40.5 -2t-34.5 -1q-54 0 -97 19t-74 54.5t-47.5 87.5t-16.5 118q0 55 18.5 110t51 104t76.5 91.5t94.5 73.5t105.5 48.5t109 17.5q20 0 39.5 -1t42 -2t49.5 -2t61 -1h393l-67 -188h-32q3 12 6.5 36t3.5 45q0 35 -16 55t-64 20h-208
l-103 -282h95q24 0 45 10.5t38.5 28t31.5 40.5t25 48h32l-110 -310h-32q3 11 7.5 31t4.5 43q0 40 -22.5 58.5t-71.5 18.5h-54l-121 -334h232q55 0 106 43t103 139h32l-77 -214h-439zM298 26q25 0 48 1.5t46 5.5l231 641q-26 6 -52.5 9t-59.5 3q-75 0 -143 -43t-116 -122
q-25 -41 -45 -87t-34 -92t-21.5 -89t-7.5 -78q0 -149 154 -149z" />
    <glyph glyph-name="oe" unicode="&#x153;" horiz-adv-x="839" 
d="M305 470q30 0 54.5 -9t44 -24.5t34 -36.5t23.5 -44q45 51 99 82.5t109 31.5q57 0 90.5 -25.5t33.5 -67.5q0 -34 -23 -61t-60 -46t-84 -29.5t-95 -10.5q-17 0 -31.5 1.5t-28.5 3.5q-11 -32 -16 -59.5t-5 -52.5q0 -49 25.5 -77.5t73.5 -28.5q45 0 81 24t73 76l28 -16
q-43 -61 -89 -87.5t-106 -26.5q-58 0 -98.5 26t-57.5 68q-42 -43 -93.5 -68.5t-102.5 -25.5q-36 0 -67.5 14t-55 39t-36.5 58.5t-13 72.5q0 60 26.5 114t68.5 95.5t94 65.5t104 24zM291 438q-42 0 -78.5 -31t-63 -77t-41.5 -98.5t-15 -94.5q0 -55 25 -86.5t70 -31.5
q43 0 80.5 32t65 78.5t43 100t15.5 95.5q0 54 -25 83.5t-76 29.5zM669 438q-28 0 -55 -13t-51.5 -36t-45 -54.5t-35.5 -68.5q10 -2 23 -3t30 -1q37 0 71 10.5t59.5 28t40.5 40.5t15 49q0 23 -14 35.5t-38 12.5z" />
    <glyph glyph-name="Scaron" unicode="&#x160;" horiz-adv-x="617" 
d="M540 521h-30q5 13 7 29t2 31q0 54 -35 83t-104 29q-32 0 -59 -8.5t-47 -23.5t-31 -36t-11 -46q0 -27 13 -57.5t48 -62.5l100 -90q45 -42 65 -78.5t20 -84.5q0 -44 -20 -84t-57 -70t-88 -48t-112 -18q-33 0 -59 6.5t-47 14t-39 14t-35 6.5q-14 0 -25 -9.5t-13 -22.5l-32 7
l69 195h33q-7 -19 -9.5 -30.5t-2.5 -24.5q0 -28 13 -50.5t35.5 -39t53 -25.5t66.5 -9q40 0 73 10.5t56 30t35.5 46t12.5 59.5q0 35 -12 64t-44 58l-89 82q-44 41 -63.5 79.5t-19.5 86.5q0 41 18.5 76t49.5 60.5t72.5 40t87.5 14.5q28 0 50 -5.5t40 -12.5t33.5 -12.5
t29.5 -5.5q26 0 37 26l33 -5zM332 940l91 -106l145 106h37l-171 -168h-38l-98 168h34z" />
    <glyph glyph-name="scaron" unicode="&#x161;" horiz-adv-x="406" 
d="M26 137q12 0 18.5 -8t6.5 -19q0 -16 -5 -25t-5 -23q0 -22 14.5 -32.5t47.5 -10.5q51 0 75.5 23.5t24.5 55.5q0 14 -4.5 31t-23.5 41l-56 74q-18 23 -24 43.5t-6 37.5q0 28 13 54.5t35.5 46.5t52.5 32t63 12q51 0 77 -23t26 -57q0 -54 -48 -54q-36 0 -36 31q0 15 6.5 22.5
t6.5 18.5q0 30 -40 30q-43 0 -67.5 -20.5t-24.5 -51.5q0 -15 7 -32.5t29 -46.5l55 -72q15 -20 21 -40t6 -45q0 -30 -15 -56t-40 -45.5t-57.5 -30.5t-67.5 -11q-54 0 -89 27t-35 69q0 24 16.5 39t42.5 15zM193 720l91 -106l145 106h37l-171 -168h-38l-98 168h34z" />
    <glyph glyph-name="Ydieresis" unicode="&#x178;" horiz-adv-x="664" 
d="M361 302l-99 -270h115l-10 -32h-315l10 32h112l100 275l-71 373h-110l9 32h314l-9 -32h-111l63 -334l297 334h-88l9 32h206l-9 -32h-78zM558 855q0 20 13.5 33.5t33.5 13.5t33.5 -13.5t13.5 -33.5t-13.5 -33.5t-33.5 -13.5t-33.5 13.5t-13.5 33.5zM374 855
q0 20 13.5 33.5t33.5 13.5t33.5 -13.5t13.5 -33.5t-13.5 -33.5t-33.5 -13.5t-33.5 13.5t-13.5 33.5z" />
    <glyph glyph-name="Zcaron" unicode="&#x17d;" horiz-adv-x="657" 
d="M537 680h-202q-108 0 -205 -181h-32l75 213h506l-588 -680h262q30 0 57.5 13.5t53 38t49 58t45.5 72.5h32l-78 -214h-563zM336 940l91 -106l145 106h37l-171 -168h-38l-98 168h34z" />
    <glyph glyph-name="zcaron" unicode="&#x17e;" horiz-adv-x="538" 
d="M334 379q-22 1 -53 2.5t-61 2.5t-54.5 1.5t-33.5 0.5q-18 0 -27 -7t-13 -21l-6 -24l-31 6q3 10 7 24.5t7.5 29.5t7 27.5t5.5 18.5q6 21 41 21q10 0 31.5 -0.5t48.5 -1.5t56.5 -2t56 -2t47 -1.5t29.5 -0.5q10 0 16.5 4.5t10.5 9.5l24 -20l-331 -353q54 0 92.5 -11t67 -24
t51 -24t45.5 -11q17 0 24.5 8.5t7.5 20.5q0 18 -19 33q-14 11 -19 21t-5 26q0 17 12 29t33 12q28 0 41 -18.5t13 -48.5q0 -60 -37 -90t-103 -30q-24 0 -49.5 6t-52.5 13.5t-56.5 13.5t-61.5 6q-30 0 -51.5 -15.5t-32.5 -29.5l-26 22zM198 720l91 -106l145 106h37l-171 -168
h-38l-98 168h34z" />
    <glyph glyph-name="florin" unicode="&#x192;" horiz-adv-x="566" 
d="M316 334l-73 -193q-14 -38 -30 -76t-33 -73t-34 -66.5t-33 -55.5q-46 -70 -91.5 -110.5t-93.5 -40.5q-39 0 -61.5 21.5t-22.5 57.5q0 27 13.5 41t36.5 14q17 0 25.5 -8t8.5 -20q0 -11 -4 -17t-8.5 -11.5t-8.5 -10.5t-4 -14q0 -21 33 -21q15 0 31.5 8.5t33.5 29t35 53.5
t36 82l151 410h-132l10 32h134l28 75q24 66 56.5 118.5t68.5 89t74 56.5t73 20q51 0 78 -25.5t27 -71.5q0 -32 -15 -49t-41 -17q-39 0 -39 32q0 10 4.5 18t10 15.5t10 16t4.5 20.5q0 14 -11.5 21.5t-30.5 7.5q-18 0 -35 -7t-35 -26t-36.5 -53.5t-39.5 -89.5l-58 -151h124
l-9 -32h-127z" />
    <glyph glyph-name="uni0237" unicode="&#x237;" horiz-adv-x="314" 
d="M76 425l10 32h171l-166 -462q-23 -63 -52 -111.5t-60 -81.5t-63.5 -49.5t-62.5 -16.5q-38 0 -62 23t-24 61q0 25 14.5 42t36.5 17q16 0 25.5 -8.5t9.5 -24.5t-6 -25.5t-6 -23.5q0 -13 8.5 -21t25.5 -8q12 0 24 7t25 24t27 44.5t29 68.5l187 513h-91z" />
    <glyph glyph-name="circumflex" unicode="&#x2c6;" 
d="M219 720h37l98 -168h-34l-91 106l-145 -106h-36z" />
    <glyph glyph-name="tilde" unicode="&#x2dc;" 
d="M61 576q3 22 13 40.5t24.5 31.5t31 20t33.5 7t29.5 -4.5t28.5 -12.5l30 -16q29 -16 52 -16q17 0 29 14t21 38h33q-11 -42 -36.5 -72t-67.5 -30q-17 0 -31 3.5t-31 12.5l-37 20q-14 8 -21 10.5t-18 2.5q-20 0 -31.5 -14t-17.5 -35h-34z" />
    <glyph glyph-name="endash" unicode="&#x2013;" horiz-adv-x="500" 
d="M-18 244h500l-4 -14h-500z" />
    <glyph glyph-name="emdash" unicode="&#x2014;" horiz-adv-x="1000" 
d="M112 244h740l-4 -14h-740z" />
    <glyph glyph-name="quoteleft" unicode="&#x2018;" horiz-adv-x="288" 
d="M319 742q-23 -8 -43.5 -19.5t-36 -26t-24.5 -32t-9 -36.5q0 -14 4 -23q10 7 24 7q23 0 38.5 -15.5t15.5 -38.5q0 -22 -17 -37t-43 -15q-31 0 -50.5 25t-19.5 60q0 66 39.5 109t112.5 71z" />
    <glyph glyph-name="quoteright" unicode="&#x2019;" horiz-adv-x="288" 
d="M155 536q23 7 43.5 18.5t36 26.5t24.5 32.5t9 36.5q0 14 -4 23q-10 -7 -24 -7q-23 0 -38.5 15.5t-15.5 38.5q0 22 17 37t43 15q31 0 50.5 -25t19.5 -60q0 -66 -39.5 -109t-112.5 -71z" />
    <glyph glyph-name="quotesinglbase" unicode="&#x201a;" horiz-adv-x="292" 
d="M-32 -143q23 7 43.5 18.5t36 26.5t24.5 32.5t9 36.5q0 14 -4 23q-10 -7 -24 -7q-23 0 -38.5 15.5t-15.5 38.5q0 22 17 37t43 15q31 0 50.5 -25t19.5 -60q0 -66 -39.5 -109t-112.5 -71z" />
    <glyph glyph-name="quotedblleft" unicode="&#x201c;" horiz-adv-x="456" 
d="M319 742q-23 -8 -43.5 -19.5t-36 -26t-24.5 -32t-9 -36.5q0 -14 4 -23q10 7 24 7q23 0 38.5 -15.5t15.5 -38.5q0 -22 -17 -37t-43 -15q-31 0 -50.5 25t-19.5 60q0 66 39.5 109t112.5 71zM487 742q-23 -8 -43.5 -19.5t-36 -26t-24.5 -32t-9 -36.5q0 -14 4 -23q10 7 24 7
q23 0 38.5 -15.5t15.5 -38.5q0 -22 -17 -37t-43 -15q-31 0 -50.5 25t-19.5 60q0 66 39.5 109t112.5 71z" />
    <glyph glyph-name="quotedblright" unicode="&#x201d;" horiz-adv-x="455" 
d="M155 536q23 7 43.5 18.5t36 26.5t24.5 32.5t9 36.5q0 14 -4 23q-10 -7 -24 -7q-23 0 -38.5 15.5t-15.5 38.5q0 22 17 37t43 15q31 0 50.5 -25t19.5 -60q0 -66 -39.5 -109t-112.5 -71zM322 536q23 7 43.5 18.5t36 26.5t24.5 32.5t9 36.5q0 14 -4 23q-10 -7 -24 -7
q-23 0 -38.5 15.5t-15.5 38.5q0 22 17 37t43 15q31 0 50.5 -25t19.5 -60q0 -66 -39.5 -109t-112.5 -71z" />
    <glyph glyph-name="quotedblbase" unicode="&#x201e;" horiz-adv-x="459" 
d="M-32 -143q23 7 43.5 18.5t36 26.5t24.5 32.5t9 36.5q0 14 -4 23q-10 -7 -24 -7q-23 0 -38.5 15.5t-15.5 38.5q0 22 17 37t43 15q31 0 50.5 -25t19.5 -60q0 -66 -39.5 -109t-112.5 -71zM135 -143q23 7 43.5 18.5t36 26.5t24.5 32.5t9 36.5q0 14 -4 23q-10 -7 -24 -7
q-23 0 -38.5 15.5t-15.5 38.5q0 22 17 37t43 15q31 0 50.5 -25t19.5 -60q0 -66 -39.5 -109t-112.5 -71z" />
    <glyph glyph-name="dagger" unicode="&#x2020;" horiz-adv-x="519" 
d="M72 457q0 20 12 32.5t31 12.5q11 0 19 -2.5t19 -8.5q23 -12 50 -15.5t71 -3.5h10q14 42 22 78.5t8 76.5q0 14 -1.5 28.5t-1.5 25.5q0 22 12.5 33t32.5 11q19 0 31 -9t12 -26q0 -12 -4 -22.5t-15 -27.5q-20 -29 -36.5 -73t-28.5 -95h10q45 0 72.5 3.5t54.5 17.5
q11 5 18.5 7t16.5 2q18 0 29.5 -12t11.5 -30q0 -19 -10.5 -32.5t-32.5 -13.5q-8 0 -15 2t-19 7q-20 9 -46 13t-71 4h-28l-8 -33q-11 -39 -15.5 -70t-4.5 -57q0 -45 21 -67q-36 -22 -56 -59t-37 -97l-93 -337h-32l79 291q12 45 17.5 78.5t5.5 57.5q0 23 -5 37t-16 29
q18 9 31.5 23.5t25.5 38t23.5 58t25.5 84.5l6 23h-8q-23 0 -40 -1t-30.5 -3.5t-25 -6t-23.5 -8.5q-15 -7 -33 -7q-20 0 -31 13t-11 30z" />
    <glyph glyph-name="daggerdbl" unicode="&#x2021;" horiz-adv-x="519" 
d="M72 457q0 20 12 32.5t31 12.5q11 0 19 -2.5t19 -8.5q23 -12 50 -15.5t71 -3.5h10q14 42 22 78.5t8 76.5q0 14 -1.5 28.5t-1.5 25.5q0 22 12.5 33t32.5 11q19 0 31 -9t12 -26q0 -12 -4 -22.5t-15 -27.5q-20 -29 -36.5 -73t-28.5 -95h10q45 0 72.5 3.5t54.5 17.5
q11 5 18.5 7t16.5 2q18 0 29.5 -12t11.5 -30q0 -19 -10.5 -32.5t-32.5 -13.5q-8 0 -15 2t-19 7q-20 9 -46 13t-71 4h-28l-8 -33q-11 -39 -15.5 -70t-4.5 -57q0 -45 21 -67q-18 -9 -31.5 -23.5t-25.5 -38t-23.5 -58.5t-25.5 -84l-7 -23h9q24 0 40.5 1t30 3t25 6t23.5 9
q15 7 33 7q20 0 31 -13t11 -30q0 -20 -12 -32.5t-31 -12.5q-11 0 -19 2.5t-19 8.5q-23 12 -50 15.5t-71 3.5h-10q-14 -42 -22 -77.5t-8 -69.5q0 -14 1.5 -28.5t1.5 -25.5q0 -22 -12.5 -33t-32.5 -11q-19 0 -31 9t-12 26q0 12 4 22.5t15 27.5q20 29 36.5 70t28.5 90h-10
q-45 0 -72.5 -3.5t-54.5 -17.5q-11 -5 -18.5 -7t-16.5 -2q-18 0 -29.5 12t-11.5 30q0 19 10.5 32.5t32.5 13.5q8 0 15 -2t19 -7q20 -9 46 -13t71 -4h27l9 33q11 39 15.5 70t4.5 57q0 45 -21 67q18 9 31.5 23.5t25.5 38t23.5 58t25.5 84.5l6 23h-8q-23 0 -40 -1t-30.5 -3.5
t-25 -6t-23.5 -8.5q-15 -7 -33 -7q-20 0 -31 13t-11 30z" />
    <glyph glyph-name="bullet" unicode="&#x2022;" horiz-adv-x="500" 
d="M72 356q0 37 14 69.5t38 56.5t56.5 38t69.5 14t69.5 -14t56.5 -38t38 -56.5t14 -69.5t-14 -69.5t-38 -56.5t-56.5 -38t-69.5 -14t-69.5 14t-56.5 38t-38 56.5t-14 69.5z" />
    <glyph glyph-name="ellipsis" unicode="&#x2026;" horiz-adv-x="1040" 
d="M39 44q0 23 16 39.5t39 16.5t39.5 -16.5t16.5 -39.5t-16.5 -39t-39.5 -16t-39 16t-16 39zM384 44q0 23 16 39.5t39 16.5t39.5 -16.5t16.5 -39.5t-16.5 -39t-39.5 -16t-39 16t-16 39zM729 44q0 23 16 39.5t39 16.5t39.5 -16.5t16.5 -39.5t-16.5 -39t-39.5 -16t-39 16
t-16 39z" />
    <glyph glyph-name="perthousand" unicode="&#x2030;" horiz-adv-x="1014" 
d="M238 704q57 0 89.5 -34.5t32.5 -86.5q0 -41 -15 -79.5t-41 -68.5t-61 -48.5t-75 -18.5q-52 0 -85.5 31.5t-33.5 91.5q0 31 13 68.5t37.5 69.5t59.5 53.5t79 21.5zM235 672q-33 0 -57 -19.5t-39.5 -49.5t-22.5 -66.5t-7 -69.5q0 -32 16.5 -49.5t46.5 -17.5q31 0 54.5 20
t40 50.5t25 67.5t8.5 70q0 29 -15.5 46.5t-49.5 17.5zM533 723l32 -18l-433 -723l-32 18zM491 322q57 0 89.5 -34.5t32.5 -86.5q0 -41 -15 -79.5t-41 -68.5t-61 -48.5t-75 -18.5q-52 0 -85.5 31.5t-33.5 91.5q0 31 13 68.5t37.5 69.5t59.5 53.5t79 21.5zM488 290
q-33 0 -57 -19.5t-39.5 -49.5t-22.5 -66.5t-7 -69.5q0 -32 16.5 -49.5t46.5 -17.5q31 0 54.5 20t40 50.5t25 67.5t8.5 70q0 29 -15.5 46.5t-49.5 17.5zM843 322q57 0 89.5 -34.5t32.5 -86.5q0 -41 -15 -79.5t-41 -68.5t-61 -48.5t-75 -18.5q-52 0 -85.5 31.5t-33.5 91.5
q0 31 13 68.5t37.5 69.5t59.5 53.5t79 21.5zM840 290q-33 0 -57 -19.5t-39.5 -49.5t-22.5 -66.5t-7 -69.5q0 -32 16.5 -49.5t46.5 -17.5q31 0 54.5 20t40 50.5t25 67.5t8.5 70q0 29 -15.5 46.5t-49.5 17.5z" />
    <glyph glyph-name="guilsinglleft" unicode="&#x2039;" horiz-adv-x="282" 
d="M129 69q-109 42 -109 142q0 63 49.5 106t134.5 52v-32q-57 -6 -90.5 -46.5t-33.5 -106.5q0 -60 61 -85z" />
    <glyph glyph-name="guilsinglright" unicode="&#x203a;" horiz-adv-x="282" 
d="M61 369q109 -42 109 -142q0 -63 -49.5 -106t-134.5 -52v32q57 6 90.5 46.5t33.5 106.5q0 60 -61 85z" />
    <glyph glyph-name="Euro" unicode="&#x20ac;" horiz-adv-x="640" 
d="M131 287q-4 -26 -6 -50.5t-2 -47.5q0 -78 46.5 -125t136.5 -47q64 0 110.5 34t84.5 106l28 -14q-38 -81 -95 -119.5t-136 -38.5q-60 0 -107 25t-80 66.5t-51.5 96t-20.5 114.5h-53l10 32h43q1 22 4.5 43.5t8.5 43.5h-48l10 32h48q20 58 55.5 110.5t81.5 91.5t100 62
t111 23q31 0 59.5 -6.5t67.5 -21.5q26 -10 43 -10q28 0 41 28l23 -4l-51 -192h-31q2 10 2 20v18q0 36 -12.5 62t-33 42.5t-46 24.5t-52.5 8q-66 0 -107.5 -27t-68.5 -65q-23 -32 -42.5 -74t-35.5 -90h256l-9 -32h-256q-14 -44 -21 -87h244l-9 -32h-240z" />
    <glyph glyph-name="trademark" unicode="&#x2122;" horiz-adv-x="1034" 
d="M154 347h70v340h-32q-38 0 -61 -21.5t-36 -70.5h-21v117h358v-117h-21q-13 48 -36 70t-61 22h-32v-340h70v-25h-198v25zM673 317l-126 362h-2v-332h56v-25h-138v25h56v340h-56v25h136l98 -286h2l99 286h133v-25h-56v-340h56v-25h-170v25h56v335h-2l-127 -365h-15z" />
    <glyph glyph-name="glyph205" 
d="M128 720l91 -106l145 106h37l-171 -168h-38l-98 168h34z" />
    <glyph glyph-name="glyph206" 
d="M333 674q0 -21 -10 -42t-26 -37.5t-36 -26.5t-40 -10q-31 0 -50.5 21t-19.5 51q0 20 10.5 40.5t27 36.5t37 26t40.5 10q28 0 47.5 -19.5t19.5 -49.5zM295 676q0 41 -35 41q-14 0 -27 -9t-23 -22t-15.5 -28.5t-5.5 -27.5q0 -26 8 -36t25 -10q15 0 28 9t23 23t16 30t6 30z
" />
    <glyph glyph-name="glyph225" 
d="M378 912q18 17 28 23.5t21 6.5q13 0 21.5 -8t8.5 -21q0 -11 -7.5 -21t-35.5 -27l-150 -93h-34z" />
    <glyph glyph-name="glyph226" 
d="M207 940l91 -106l145 106h37l-171 -168h-38l-98 168h34z" />
    <glyph glyph-name="glyph227" 
d="M298 940h37l98 -168h-34l-91 106l-145 -106h-36z" />
    <glyph glyph-name="glyph228" 
d="M349 855q0 20 13.5 33.5t33.5 13.5t33.5 -13.5t13.5 -33.5t-13.5 -33.5t-33.5 -13.5t-33.5 13.5t-13.5 33.5zM165 855q0 20 13.5 33.5t33.5 13.5t33.5 -13.5t13.5 -33.5t-13.5 -33.5t-33.5 -13.5t-33.5 13.5t-13.5 33.5z" />
    <glyph glyph-name="glyph229" 
d="M180 876q-10 8 -16 16.5t-6 17.5q0 14 8.5 23t25.5 9q10 0 17.5 -4.5t16.5 -16.5l110 -149h-31z" />
    <glyph glyph-name="glyph230" 
d="M412 894q0 -21 -10 -42t-26 -37.5t-36 -26.5t-40 -10q-31 0 -50.5 21t-19.5 51q0 20 10.5 40.5t27 36.5t37 26t40.5 10q28 0 47.5 -19.5t19.5 -49.5zM374 896q0 41 -35 41q-14 0 -27 -9t-23 -22t-15.5 -28.5t-5.5 -27.5q0 -26 8 -36t25 -10q15 0 28 9t23 23t16 30t6 30z
" />
    <glyph glyph-name="glyph231" 
d="M140 796q3 22 13 40.5t24.5 31.5t31 20t33.5 7t29.5 -4.5t28.5 -12.5l30 -16q29 -16 52 -16q17 0 29 14t21 38h33q-11 -42 -36.5 -72t-67.5 -30q-17 0 -31 3.5t-31 12.5l-37 20q-14 8 -21 10.5t-18 2.5q-20 0 -31.5 -14t-17.5 -35h-34z" />
    </font>
</defs>
</svg>
